<?xml version="1.0" encoding="utf-8"?>
<!-- Generator: Adobe Illustrator 24.3.0, SVG Export Plug-In . SVG Version: 6.00 Build 0)  -->
<svg version="1.1" id="Capa_1" xmlns="http://www.w3.org/2000/svg" xmlns:xlink="http://www.w3.org/1999/xlink" x="0px" y="0px"
	 viewBox="0 0 3000 2000" style="enable-background:new 0 0 3000 2000;" xml:space="preserve">
<style type="text/css">
	.st0{fill:#FFFFFF;}
	.st1{enable-background:new    ;}
	.st2{clip-path:url(#SVGID_2_);}
	.st3{clip-path:url(#SVGID_4_);}
	.st4{clip-path:url(#SVGID_6_);}
	.st5{fill:none;}
</style>
<rect class="st0" width="3000" height="2000"/>
<g>
	<g>
		<g class="st1">
			<g>
				<g class="st1">
					<defs>
						<polygon id="SVGID_1_" class="st1" points="1527.57,1142.74 1117.23,1711.43 736.18,973.88 1146.52,405.19 						"/>
					</defs>
					<clipPath id="SVGID_2_">
						<use xlink:href="#SVGID_1_"  style="overflow:visible;"/>
					</clipPath>
					<g class="st2">
						<g>
							<g>
								<g>
									<path d="M1258.33,752.34L1222,766.97l0.12,0.24l16.62-6.67l0.06,0.12l2.25-0.98c3.77-1.61,7.18-3.05,10.2-4.34
										C1253.93,754.22,1256.3,753.21,1258.33,752.34 M1267.35,755.42c-0.99,3.18-2.47,8.8-4.77,17.51
										c-1.35,5.14-3,11.38-5.03,18.94l-0.99,3.68l-0.04-0.08l-6.86,25.63l0.32,0.62L1267.35,755.42 M1268.19,752.23l-1.63-3.2
										l-0.14,0.07l1.71,3.35L1268.19,752.23"/>
									<path d="M1222,766.97l36.33-14.63c-2.03,0.88-4.41,1.88-7.07,3c-3.02,1.29-6.43,2.73-10.2,4.34l-2.25,0.98l-0.06-0.12
										l-16.62,6.67L1222,766.97 M1245.04,764.76c2.85-1.21,5.48-2.33,7.86-3.34c3.77-1.6,6.95-2.94,9.45-4.03
										c-0.82,3.04-1.85,6.92-3.18,11.92c-1.13,4.27-2.45,9.3-4.03,15.22L1245.04,764.76 M1249.66,821.1l6.86-25.63l0.04,0.08
										l0.99-3.68c2.03-7.56,3.68-13.8,5.03-18.94c2.3-8.71,3.79-14.33,4.77-17.51l-17.37,66.3L1249.66,821.1 M1266.42,749.09
										l0.14-0.07l1.63,3.2l-0.06,0.22L1266.42,749.09 M1272.49,752.39l-5.29-10.36l-51.55,20.76l5.83,11.42l16.62-6.68
										l14.13,27.66l-6.88,25.73l6.07,11.89L1272.49,752.39"/>
									<path d="M1267.82,856.49l-1.68-3.29l-0.03,0.12l1.64,3.21L1267.82,856.49 M1285.01,785.14l-0.28-0.54l-17.64,65.13
										c1.79-5.2,4.37-14.66,6.87-23.84l1.03-3.74L1285.01,785.14 M1312.96,839.85l-0.2-0.4l-24.56,9.26
										c-1.33,0.52-2.73,1.03-4.13,1.56c-3.96,1.49-8.01,3.02-11.06,4.3L1312.96,839.85"/>
									<path d="M1266.12,853.31l0.03-0.12l1.68,3.29l-0.07,0.03L1266.12,853.31 M1267.09,849.73l17.64-65.13l0.28,0.54
										l-10.02,37.01l-1.03,3.74C1271.46,835.07,1268.88,844.53,1267.09,849.73 M1273,854.58c3.05-1.29,7.09-2.81,11.06-4.3
										c1.4-0.53,2.8-1.05,4.13-1.56l24.56-9.26l0.2,0.4L1273,854.58 M1319.39,844.18l-5.97-11.68l-26.8,10.11
										c-1.34,0.51-2.74,1.04-4.13,1.56c-3.65,1.37-7.38,2.78-10.36,4.02c1.58-5.29,3.42-12.03,5.22-18.62l11.98-44.23l-6-11.74
										l-21.54,79.5l5.29,10.35L1319.39,844.18"/>
									<path d="M1320.08,873.18l-36.33,14.63l0.12,0.24l16.62-6.68l0.06,0.12l2.26-0.97c3.76-1.62,7.18-3.06,10.2-4.34
										C1315.67,875.05,1318.04,874.05,1320.08,873.18 M1329.09,876.26c-0.99,3.18-2.47,8.8-4.77,17.51
										c-1.35,5.14-3,11.38-5.03,18.94l-0.98,3.69l-0.04-0.08l-6.86,25.63l0.31,0.61L1329.09,876.26 M1329.93,873.06l-1.63-3.2
										l-0.14,0.07l1.71,3.35L1329.93,873.06"/>
									<path d="M1283.75,887.82l36.33-14.63c-2.04,0.86-4.41,1.87-7.07,3c-3.03,1.27-6.44,2.72-10.2,4.34l-2.26,0.97l-0.06-0.12
										l-16.62,6.68L1283.75,887.82 M1306.79,885.61c2.85-1.21,5.48-2.34,7.86-3.34c3.77-1.6,6.95-2.94,9.45-4.03
										c-0.83,3.03-1.85,6.92-3.18,11.92c-1.13,4.26-2.45,9.29-4.04,15.21L1306.79,885.61 M1311.4,941.95l6.86-25.63l0.04,0.08
										l0.98-3.69c2.03-7.56,3.68-13.8,5.03-18.94c2.3-8.71,3.79-14.33,4.77-17.51l-17.37,66.3L1311.4,941.95 M1328.16,869.93
										l0.14-0.07l1.63,3.2l-0.06,0.22L1328.16,869.93 M1334.23,873.22l-5.29-10.35l-51.56,20.75l5.83,11.42l16.62-6.67
										l14.13,27.65l-6.88,25.74l6.07,11.88L1334.23,873.22"/>
									<polyline points="1356.67,925.4 1356.36,924.8 1324.7,967.98 1325.01,968.58 1356.67,925.4 									"/>
									<path d="M1324.7,967.98l31.66-43.18l0.31,0.6l-31.66,43.18L1324.7,967.98 M1374.59,952.23l-31.14-60.94l-4.93,6.72
										l12.72,24.9l-31.7,43.24l5.64,11.04l31.7-43.24l12.77,25L1374.59,952.23"/>
									<path d="M1374.84,980.36l-36.33,14.63l0.12,0.24l16.62-6.67l0.05,0.11l2.26-0.97c3.77-1.61,7.18-3.05,10.2-4.34
										C1370.43,982.24,1372.8,981.23,1374.84,980.36 M1383.85,983.44c-0.99,3.18-2.47,8.8-4.77,17.51
										c-1.36,5.13-3,11.38-5.03,18.94l-0.99,3.68l-0.04-0.08l-6.86,25.63l0.32,0.62L1383.85,983.44 M1384.69,980.25l-1.63-3.2
										l-0.14,0.06l1.72,3.36L1384.69,980.25"/>
									<path d="M1338.5,994.99l36.33-14.63c-2.03,0.88-4.41,1.88-7.07,3c-3.02,1.29-6.43,2.73-10.2,4.34l-2.26,0.97l-0.05-0.11
										l-16.62,6.67L1338.5,994.99 M1361.54,992.78c2.85-1.21,5.48-2.33,7.86-3.34c3.77-1.6,6.95-2.94,9.45-4.03
										c-0.82,3.04-1.85,6.92-3.18,11.92c-1.13,4.27-2.45,9.29-4.03,15.22L1361.54,992.78 M1366.16,1049.12l6.86-25.63l0.04,0.08
										l0.99-3.68c2.03-7.56,3.67-13.81,5.03-18.94c2.3-8.71,3.79-14.33,4.77-17.51l-17.37,66.3L1366.16,1049.12 M1382.91,977.1
										l0.14-0.06l1.63,3.2l-0.06,0.22L1382.91,977.1 M1388.99,980.41l-5.29-10.36l-51.55,20.76l5.83,11.42l16.62-6.68
										l14.13,27.66l-6.88,25.73l6.07,11.88L1388.99,980.41"/>
									<path d="M1409.31,1090.14c-0.33,4.2-1.89,7.99-4.69,11.81l-0.88,1.2c-0.48,0.65-0.95,1.28-1.42,1.89
										c-1.74,2.32-3.41,4.55-4.28,6.49l0.28,0.55c1.09-2.07,2.65-4.11,4.17-6.11c0.48-0.64,0.96-1.27,1.4-1.86l1.32-1.79
										C1408.35,1098.04,1409.37,1093.95,1409.31,1090.14 M1421.6,1052.63c4.83,11.16,5.09,20.83,0.62,26.93
										c-2,2.73-4.16,3.9-6.47,3.54c2.54,0.97,4.94,0.08,6.98-2.7C1427.32,1074.14,1426.89,1064.12,1421.6,1052.63
										 M1408.45,1026.75l-0.31-0.6l-31.66,43.18l0.31,0.6L1408.45,1026.75"/>
									<path d="M1398.05,1111.53c0.87-1.94,2.53-4.17,4.28-6.49c0.47-0.61,0.94-1.24,1.42-1.89l0.88-1.2
										c2.8-3.82,4.37-7.61,4.69-11.81c0.06,3.81-0.96,7.9-4.1,12.18l-1.32,1.79c-0.44,0.6-0.91,1.22-1.4,1.86
										c-1.52,2-3.08,4.04-4.17,6.11L1398.05,1111.53 M1397.85,1050.07l10.83-14.77l8.62,16.88c5.04,9.87,5.8,17.32,2.25,22.15
										c-2.55,3.48-6.44,5.61-13.89-8.97L1397.85,1050.07 M1415.75,1083.09c2.31,0.37,4.47-0.81,6.47-3.54
										c4.47-6.1,4.21-15.77-0.62-26.93c5.28,11.49,5.72,21.51,1.13,27.77C1420.7,1083.17,1418.29,1084.06,1415.75,1083.09
										 M1376.48,1069.33l31.66-43.18l0.31,0.6l-31.66,43.18L1376.48,1069.33 M1422.87,1046.72l-14.91-29.19l-36.63,49.96
										l5.64,11.04l15.95-21.75l7.97,15.61c6.68,13.08,5.78,17.88,1.05,24.32l-0.88,1.2c-0.47,0.64-0.94,1.26-1.39,1.87
										c-2.58,3.44-4.82,6.41-5.58,9.83l-0.38,1.68l6,11.75l0.84-4.33c0.37-1.94,2.81-5.13,4.58-7.47c0.5-0.65,0.99-1.29,1.44-1.9
										l1.32-1.79c4.29-5.86,5.85-12.55,4.7-20.32c4.65,3.68,9.28,3.22,12.82-1.6
										C1431.72,1077.03,1430.74,1062.13,1422.87,1046.72"/>
									<polyline points="1449.77,1167.41 1433.46,1135.49 1428.58,1142.14 1444.89,1174.06 1449.77,1167.41 									"/>
									<path d="M1321.84,1138.64l-0.16-0.32c-1.5,4.56-1.88,10.94,0.21,18.43C1320.12,1149.63,1320.5,1143.26,1321.84,1138.64
										 M1347.81,1161.97c-0.05,4.54-1.23,8.52-3.56,11.7c-2.49,3.4-6.19,5.27-10.35,2.98c4.32,2.79,8.12,1.08,10.75-2.51
										C1347.33,1170.49,1348.05,1166.14,1347.81,1161.97 M1346.72,1149.39c-0.81-0.93-1.65-2.07-2.51-3.43
										c0.65,1.54,1.22,3.06,1.7,4.54L1346.72,1149.39 M1345.17,1113.51c-1.11,0-2.08,0.3-2.87,0.69l0.03,0.06
										C1343.28,1113.81,1344.23,1113.55,1345.17,1113.51 M1360.43,1135.72c0.84,5.62,0.03,10.63-2.47,14.05
										c-1.11,1.52-2.49,2.76-4.13,3.15c1.47-0.01,2.99-0.76,4.38-2.66C1360.27,1147.45,1361.59,1142.4,1360.43,1135.72"/>
									<path d="M1321.89,1156.75c-2.09-7.49-1.71-13.87-0.21-18.43l0.16,0.32C1320.5,1143.26,1320.12,1149.63,1321.89,1156.75
										 M1333.9,1176.65c4.16,2.29,7.86,0.41,10.35-2.98c2.33-3.18,3.51-7.17,3.56-11.7c0.23,4.17-0.48,8.52-3.16,12.17
										C1342.02,1177.73,1338.22,1179.44,1333.9,1176.65 M1345.91,1150.5c-0.48-1.48-1.05-3-1.7-4.54
										c0.87,1.37,1.71,2.5,2.51,3.43L1345.91,1150.5 M1342.3,1114.21c0.79-0.39,1.75-0.7,2.87-0.69
										c-0.94,0.04-1.88,0.29-2.84,0.75L1342.3,1114.21 M1353.83,1152.93c1.63-0.39,3.01-1.64,4.13-3.15
										c2.51-3.42,3.31-8.43,2.47-14.05c1.16,6.68-0.16,11.73-2.22,14.55C1356.81,1152.17,1355.3,1152.92,1353.83,1152.93
										 M1358.87,1120.72c-7.69-15.05-15.71-15.51-20.64-10.92l-1.63,1.51l5.28,10.34l1.19-0.79c4.02-2.65,7.28-0.78,10.86,6.24
										c3.64,7.11,4.14,13.64,1.34,17.45c-2.15,2.93-5.35,4.85-11.12-6.44l-3.02-5.9l-4.73,6.45l3.45,6.75
										c7.64,14.96,3.19,21.04,1.72,23.04c-1.92,2.61-7.06,7.32-13.52-5.32c-3.91-7.66-4.8-15.92-2.38-22.1l0.69-1.78l-5.4-10.56
										l-1.21,2.35c-3.76,7.36-5.16,21.79,3.25,38.25c7.91,15.48,17.45,19.44,24.31,10.09c3.81-5.2,5.04-12.74,3.57-21.29
										c3.18,1.83,6.82,1.73,9.99-2.58C1365.5,1149.18,1366.67,1135.98,1358.87,1120.72"/>
									<path d="M1392.78,1190.9c8.6,20.94,4.5,38.4-2.15,47.47c-8.42,11.49-18.66,10.4-27.71-2.34
										c9.1,12.97,19.98,14.43,28.33,3.05C1399.91,1227.27,1400.38,1208.79,1392.78,1190.9 M1379.56,1164.62l-0.25-0.49
										l-31.65,43.17l0.25,0.49L1379.56,1164.62"/>
									<path d="M1353.02,1209.69l26.78-36.52l7.81,15.29c10.03,19.63,6.76,35.94,0.36,44.67c-8.47,11.55-18.62,8.51-27.13-8.16
										L1353.02,1209.69 M1362.92,1236.03c9.05,12.74,19.29,13.82,27.71,2.34c6.65-9.07,10.75-26.53,2.15-47.47
										c7.6,17.89,7.13,36.38-1.53,48.18C1382.9,1250.47,1372.02,1249.01,1362.92,1236.03 M1347.66,1207.3l31.65-43.17l0.25,0.49
										l-31.65,43.17L1347.66,1207.3 M1393.02,1182.69l-13.89-27.19l-36.63,49.96l13.84,27.08c11.18,21.87,26.63,26.7,37.59,11.75
										C1404.7,1229.6,1404.34,1204.85,1393.02,1182.69"/>
									<polyline points="1024.08,663.25 1023.77,662.65 992.12,705.82 992.42,706.42 1024.08,663.25 									"/>
									<path d="M992.12,705.82l31.65-43.17l0.31,0.6l-31.65,43.17L992.12,705.82 M1042.01,690.06l-31.13-60.93l-4.93,6.72
										l12.71,24.88l-31.7,43.24l5.65,11.05l31.7-43.24l12.77,24.99L1042.01,690.06"/>
									<path d="M1046.32,768.47c-0.33,4.2-1.9,7.98-4.71,11.8l-0.87,1.19c-0.48,0.65-0.95,1.28-1.41,1.91
										c-1.75,2.32-3.41,4.55-4.28,6.49l0.28,0.55c1.09-2.06,2.64-4.1,4.17-6.11c0.48-0.64,0.95-1.26,1.4-1.86l1.32-1.79
										C1045.35,776.38,1046.38,772.28,1046.32,768.47 M1058.61,730.94c4.83,11.17,5.09,20.84,0.62,26.93
										c-2,2.73-4.16,3.91-6.47,3.54c2.54,0.98,4.95,0.09,6.99-2.69C1064.32,752.48,1063.89,742.45,1058.61,730.94
										 M1045.45,705.08l-0.31-0.6l-31.65,43.17l0.31,0.6L1045.45,705.08"/>
									<path d="M1035.06,789.86c0.87-1.94,2.53-4.16,4.28-6.49c0.46-0.63,0.94-1.26,1.41-1.91l0.87-1.19
										c2.81-3.83,4.38-7.61,4.71-11.8c0.06,3.81-0.97,7.91-4.1,12.17l-1.32,1.79c-0.44,0.6-0.91,1.23-1.4,1.86
										c-1.53,2.01-3.09,4.05-4.17,6.11L1035.06,789.86 M1034.85,728.4l10.83-14.77l8.62,16.88c5.04,9.87,5.8,17.32,2.25,22.15
										c-2.55,3.48-6.44,5.61-13.89-8.97L1034.85,728.4 M1052.76,761.41c2.31,0.38,4.47-0.81,6.47-3.54
										c4.47-6.09,4.21-15.76-0.62-26.93c5.28,11.51,5.72,21.53,1.14,27.78C1057.71,761.5,1055.3,762.39,1052.76,761.41
										 M1013.49,747.65l31.65-43.17l0.31,0.6l-31.65,43.17L1013.49,747.65 M1059.88,725.05l-14.92-29.2l-36.63,49.96l5.65,11.06
										l15.95-21.75l7.97,15.61c6.68,13.07,5.78,17.88,1.05,24.33l-0.87,1.19c-0.47,0.64-0.94,1.26-1.4,1.87
										c-2.58,3.44-4.81,6.42-5.58,9.82l-0.38,1.69l6,11.74l0.84-4.33c0.37-1.93,2.81-5.13,4.59-7.46c0.5-0.66,0.98-1.3,1.43-1.92
										l1.32-1.79c4.29-5.86,5.85-12.55,4.71-20.31c4.64,3.69,9.28,3.22,12.82-1.6C1068.72,755.36,1067.75,740.45,1059.88,725.05"
										/>
									<path d="M1081.21,794.46l-36.34,14.62l0.12,0.24l16.62-6.67l0.06,0.12l2.26-0.97c3.76-1.61,7.17-3.05,10.2-4.33
										C1076.8,796.33,1079.18,795.32,1081.21,794.46 M1090.22,797.54c-0.99,3.18-2.46,8.79-4.77,17.51
										c-1.35,5.13-3,11.38-5.03,18.93l-0.99,3.69l-0.04-0.07l-6.85,25.63l0.31,0.61L1090.22,797.54 M1091.06,794.34l-1.63-3.2
										l-0.13,0.06l1.71,3.35L1091.06,794.34"/>
									<path d="M1044.87,809.08l36.34-14.62c-2.04,0.86-4.41,1.87-7.08,3.01c-3.03,1.27-6.44,2.72-10.2,4.33l-2.26,0.97
										l-0.06-0.12l-16.62,6.67L1044.87,809.08 M1067.91,806.87c2.85-1.21,5.48-2.32,7.87-3.33c3.77-1.61,6.95-2.95,9.44-4.04
										c-0.82,3.04-1.85,6.94-3.17,11.93c-1.13,4.26-2.46,9.3-4.04,15.21L1067.91,806.87 M1072.54,863.22l6.85-25.63l0.04,0.07
										l0.99-3.69c2.02-7.55,3.68-13.8,5.03-18.93c2.31-8.72,3.79-14.33,4.77-17.51l-17.37,66.29L1072.54,863.22 M1089.29,791.2
										l0.13-0.06l1.63,3.2l-0.05,0.21L1089.29,791.2 M1095.36,794.5l-5.29-10.35l-51.56,20.75l5.83,11.42l16.62-6.67l14.13,27.65
										l-6.88,25.74l6.07,11.88L1095.36,794.5"/>
									<path d="M1114.22,922.77l-0.14-0.28c-4.29,1.06-8.25-0.17-11.96-3.68C1106.65,923.32,1110.83,923.81,1114.22,922.77
										 M1119.61,852.86c-8.62-8.17-17.64-5.04-23.84,3.43c-8.4,11.46-9.88,28.06-4.3,43.98c-5.77-17.27-2.17-33.6,4.82-43.13
										C1102.46,848.72,1111.29,845.36,1119.61,852.86 M1131.04,872.27c2.94,8.76,3.38,17.21,1.33,25.61l0.28,0.54
										C1134.97,890.9,1134.38,881.78,1131.04,872.27"/>
									<path d="M1102.11,918.81c3.71,3.51,7.67,4.74,11.96,3.68l0.14,0.28C1110.83,923.81,1106.65,923.32,1102.11,918.81
										 M1091.46,900.27c-5.57-15.93-4.1-32.52,4.3-43.98c6.21-8.47,15.22-11.6,23.84-3.43c-8.33-7.5-17.16-4.14-23.33,4.28
										C1089.29,866.67,1085.69,883,1091.46,900.27 M1132.37,897.88c2.05-8.4,1.61-16.85-1.33-25.61
										c3.34,9.51,3.92,18.63,1.61,26.15L1132.37,897.88 M1129.95,860.58c-12.37-24.21-27.77-21.91-36.85-9.52
										c-11.16,15.22-11.45,39.56-0.71,60.57c7.79,15.25,16.99,20.99,25.9,16.18l2.14-1.16l-5.61-10.98l-1.11,0.36
										c-6.33,2.09-11.35-1.26-16.28-10.9c-9.04-17.7-4.83-34.09,1.53-42.76c6.4-8.73,17.02-12.76,25.9,4.62
										c5.3,10.37,6.43,19.29,3.67,28.92l-0.5,1.76l5.49,10.74l1.17-2.67C1139.98,893.62,1138.21,876.74,1129.95,860.58"/>
									<polyline points="1150.91,911.49 1150.66,910.99 1119,954.16 1119.25,954.66 1150.91,911.49 									"/>
									<path d="M1119,954.16l31.65-43.17l0.25,0.49l-31.65,43.17L1119,954.16 M1176.36,953.04l-25.89-50.66l-36.63,49.96
										l26.11,51.11l5.8-5l-21.4-41.89l11.85-16.16l19.32,37.82l4.93-6.72l-19.32-37.82l10-13.64l20.3,39.73L1176.36,953.04"/>
									<path d="M1183.38,1036.72c-0.33,4.2-1.89,7.99-4.7,11.82l-0.87,1.19c-0.48,0.65-0.95,1.28-1.42,1.89
										c-1.74,2.34-3.41,4.55-4.28,6.49l0.28,0.55c1.09-2.06,2.64-4.1,4.17-6.11c0.48-0.64,0.96-1.25,1.4-1.85l1.32-1.79
										C1182.42,1044.64,1183.43,1040.54,1183.38,1036.72 M1195.67,999.21c4.83,11.16,5.09,20.84,0.62,26.93
										c-2,2.73-4.16,3.9-6.47,3.54c2.54,0.97,4.95,0.09,6.99-2.69C1201.39,1020.74,1200.95,1010.71,1195.67,999.21
										 M1182.51,973.33l-0.31-0.6l-31.65,43.17l0.31,0.6L1182.51,973.33"/>
									<path d="M1172.11,1058.11c0.87-1.94,2.53-4.15,4.28-6.49c0.46-0.61,0.94-1.24,1.42-1.89l0.87-1.19
										c2.81-3.83,4.37-7.62,4.7-11.82c0.06,3.81-0.96,7.92-4.09,12.19l-1.32,1.79c-0.44,0.6-0.92,1.21-1.4,1.85
										c-1.53,2.01-3.09,4.05-4.17,6.11L1172.11,1058.11 M1171.92,996.66l10.83-14.77l8.62,16.86c5.04,9.87,5.8,17.32,2.25,22.15
										c-2.55,3.48-6.44,5.62-13.89-8.97L1171.92,996.66 M1189.82,1029.67c2.31,0.37,4.47-0.81,6.47-3.54
										c4.47-6.09,4.21-15.77-0.62-26.93c5.28,11.5,5.72,21.53,1.14,27.78C1194.77,1029.77,1192.36,1030.64,1189.82,1029.67
										 M1150.55,1015.91l31.65-43.17l0.31,0.6l-31.65,43.17L1150.55,1015.91 M1196.94,993.31l-14.92-29.2l-36.63,49.96
										l5.65,11.05l15.95-21.75l7.97,15.59c6.68,13.08,5.78,17.88,1.05,24.33l-0.87,1.19c-0.47,0.64-0.94,1.26-1.39,1.88
										c-2.58,3.44-4.81,6.42-5.58,9.82l-0.38,1.69l6,11.74l0.84-4.33c0.37-1.93,2.81-5.13,4.58-7.47c0.5-0.65,0.99-1.29,1.44-1.9
										l1.32-1.79c4.29-5.86,5.85-12.55,4.7-20.32c4.64,3.69,9.28,3.22,12.82-1.6C1205.77,1023.62,1204.81,1008.71,1196.94,993.31
										"/>
									<polyline points="1230.5,1067.27 1230.25,1066.78 1198.6,1109.95 1198.85,1110.45 1230.5,1067.27 									"/>
									<path d="M1198.6,1109.95l31.65-43.17l0.25,0.49l-31.65,43.17L1198.6,1109.95 M1255.69,1108.3l-25.61-50.13l-36.63,49.96
										l5.59,10.94l16.38-22.35l18.78,36.75l4.93-6.73l-18.78-36.75l10.39-14.17l20.03,39.2L1255.69,1108.3"/>
									<path d="M1258.26,1140.97l-36.33,14.63l0.12,0.24l16.62-6.67l0.05,0.11l2.26-0.97c3.76-1.6,7.18-3.04,10.2-4.33
										C1253.85,1142.85,1256.22,1141.85,1258.26,1140.97 M1267.27,1144.07c-0.99,3.18-2.46,8.79-4.77,17.51
										c-1.36,5.12-3,11.38-5.03,18.93l-0.99,3.69l-0.04-0.08l-6.85,25.63l0.32,0.62L1267.27,1144.07 M1268.11,1140.87l-1.63-3.2
										l-0.14,0.05l1.72,3.36L1268.11,1140.87"/>
									<path d="M1221.92,1155.61l36.33-14.63c-2.03,0.88-4.41,1.88-7.08,3.01c-3.02,1.29-6.43,2.73-10.2,4.33l-2.26,0.97
										l-0.05-0.11l-16.62,6.67L1221.92,1155.61 M1244.96,1153.4c2.85-1.21,5.47-2.32,7.86-3.34c3.77-1.6,6.95-2.94,9.45-4.03
										c-0.82,3.04-1.86,6.93-3.18,11.92c-1.13,4.27-2.46,9.3-4.03,15.22L1244.96,1153.4 M1249.58,1209.74l6.85-25.63l0.04,0.08
										l0.99-3.69c2.02-7.55,3.67-13.81,5.03-18.93c2.31-8.72,3.79-14.33,4.77-17.51l-17.37,66.29L1249.58,1209.74
										 M1266.33,1137.72l0.14-0.05l1.63,3.2l-0.05,0.21L1266.33,1137.72 M1272.41,1141.02l-5.29-10.36l-51.55,20.76l5.83,11.42
										l16.62-6.68l14.13,27.66l-6.88,25.73l6.07,11.88L1272.41,1141.02"/>
									<path d="M1291.27,1269.3l-0.14-0.28c-4.29,1.05-8.25-0.17-11.96-3.68C1283.7,1269.84,1287.88,1270.34,1291.27,1269.3
										 M1296.66,1199.39c-8.63-8.19-17.64-5.04-23.85,3.43c-8.4,11.46-9.87,28.06-4.31,43.97c-5.77-17.26-2.17-33.58,4.83-43.12
										C1279.51,1195.25,1288.33,1191.87,1296.66,1199.39 M1308.09,1218.8c2.94,8.76,3.38,17.21,1.32,25.59l0.28,0.54
										C1312.02,1237.43,1311.43,1228.31,1308.09,1218.8"/>
									<path d="M1279.16,1265.34c3.71,3.51,7.67,4.73,11.96,3.68l0.14,0.28C1287.88,1270.34,1283.7,1269.84,1279.16,1265.34
										 M1268.51,1246.78c-5.57-15.92-4.1-32.51,4.31-43.97c6.21-8.47,15.22-11.61,23.85-3.43c-8.33-7.51-17.16-4.14-23.33,4.28
										C1266.34,1213.2,1262.74,1229.53,1268.51,1246.78 M1309.41,1244.39c2.05-8.39,1.62-16.84-1.32-25.59
										c3.34,9.51,3.92,18.63,1.6,26.13L1309.41,1244.39 M1307,1207.1c-12.37-24.2-27.77-21.91-36.85-9.52
										c-11.16,15.22-11.44,39.57-0.71,60.57c7.79,15.25,16.99,21,25.9,16.18l2.14-1.15l-5.62-11l-1.1,0.37
										c-6.33,2.09-11.36-1.27-16.28-10.92c-9.04-17.69-4.83-34.09,1.53-42.76c6.4-8.73,17.03-12.75,25.9,4.62
										c5.31,10.38,6.43,19.3,3.68,28.93l-0.5,1.75l5.49,10.75l1.17-2.67C1317.03,1240.14,1315.26,1223.27,1307,1207.1"/>
									<polyline points="1327.96,1258.02 1327.7,1257.52 1296.05,1300.69 1296.3,1301.19 1327.96,1258.02 									"/>
									<path d="M1296.05,1300.69l31.65-43.17l0.25,0.49l-31.65,43.17L1296.05,1300.69 M1353.41,1299.55l-25.89-50.66l-36.63,49.96
										l26.12,51.12l5.8-5.02l-21.4-41.88l11.85-16.16l19.32,37.81l4.93-6.72l-19.32-37.81l10-13.64l20.29,39.71L1353.41,1299.55"
										/>
									<path d="M1118.33,1086.03c-5.59-10.94-10.98-11.89-14.07-7.67c-3.39,4.63-2.62,11.5,1.65,23.99
										c4.46,12.97,4.12,17.77,1.47,21.39c-2.55,3.48-6.53,2.84-11.3-6.5c-4.28-8.39-4.74-15.42-2.41-21.22l-2.08-4.08
										c-2.67,5.26-3.71,14.6,2.81,27.36c6.04,11.82,11.82,13.21,15.28,8.49c2.82-3.85,4.39-9.59-1.3-26.2
										c-3.73-10.87-4.44-15.6-1.85-19.13c2.62-3.57,6.25-1.72,10.01,5.64c4.1,8.03,4.12,14.08,2.19,18.68l2.08,4.08
										C1123.33,1106.31,1124.07,1097.26,1118.33,1086.03"/>
									<path d="M1120.83,1165.68c-6.26-12.25-4.47-25.71,0.94-33.09c5.31-7.24,13.26-8.31,19.96,4.82
										c6.3,12.32,4.7,25.16-0.77,32.63C1135.38,1177.64,1127.57,1178.87,1120.83,1165.68 M1143.49,1135.27
										c-7.75-15.17-17.33-15.85-23.99-6.78c-6.75,9.21-7.81,24.88-0.47,39.25c8.05,15.76,17.69,15.22,24.11,6.47
										C1150,1164.86,1150.64,1149.27,1143.49,1135.27"/>
									<polyline points="1176.28,1200.56 1160.48,1169.65 1136.96,1201.72 1138.97,1205.66 1150.26,1190.27 1163.19,1215.57 
										1164.87,1213.28 1151.94,1187.97 1160.81,1175.88 1174.6,1202.86 1176.28,1200.56 									"/>
									<path d="M1212.47,1271.4l-2.05-4.01c-7.4,4.15-24.19,12.56-28.34,15.5l-0.04-0.07c1.4-3.29,11.04-30.28,15.07-41.47
										l-2.24-4.39c-8.04,4.91-25.33,14.25-27.99,16.29l-0.04-0.08c2.16-4.92,11.21-30.38,15.1-41.51l-2.08-4.08l-16.29,46.22
										l2.28,4.46c7.71-4.33,23.99-13.18,27.72-16.04l0.04,0.07c-1.57,3.63-11.11,30.14-14.94,41.05l2.31,4.53L1212.47,1271.4"/>
									<path d="M1204.65,1301.62c8.33-3.56,14.17-5.96,16.58-7.15l0.04,0.08c-1.06,3.16-2.93,10.68-7.01,25.89L1204.65,1301.62
										 M1224.24,1294.45l-2.39-4.67l-33.1,13.33l2.05,4.01l11.45-4.6l11,21.52l-4.74,17.72l2.2,4.3L1224.24,1294.45"/>
									<path d="M1230.05,1341.86l9.17-12.51l6.86,13.42c4.06,7.95,4.5,14.28,1.61,18.22c-3.09,4.22-6.76,2.17-11.34-6.8
										L1230.05,1341.86 M1248.2,1341.35l-9.35-18.3l-23.52,32.08l2.05,4.01l10.99-14.98l6.41,12.54
										c4.99,9.77,4.65,14.45,0.78,19.72l-0.6,0.82c-2.02,2.75-4.01,5.1-4.53,7.42l2.05,4.01c0.43-2.18,2.79-4.91,4.44-7.15
										l0.91-1.24c4-5.45,3.79-11.11,1.67-17.15c3.48,4.91,7.4,6.13,10.4,2.05C1253.58,1360.13,1253.35,1351.41,1248.2,1341.35"/>
									<polyline points="1278.43,1400.5 1262.44,1369.22 1238.93,1401.29 1255.21,1433.16 1257.19,1431.46 1242.62,1402.94 
										1252.5,1389.47 1265.8,1415.51 1267.48,1413.22 1254.18,1387.18 1262.78,1375.45 1276.75,1402.79 1278.43,1400.5 									
										"/>
									<polyline points="1019.31,1027.25 1017.3,1023.31 993.78,1055.38 995.8,1059.32 1019.31,1027.25 									"/>
									<path d="M1047.12,1081.66l-2.05-4.01l-10.65,14.53c-3.83,5.22-7.33,9.86-10.5,14.94l-0.04-0.08
										c0.92-6.68,4.51-43.27,6.1-58.92l-2.98-5.83l-23.52,32.07l2.05,4.01l10.92-14.89c4.27-5.82,7.73-10.42,10.63-15l0.04,0.07
										c-0.72,7.17-4.71,44.79-6.27,59.8l2.76,5.4L1047.12,1081.66"/>
									<polyline points="1070.86,1128.13 1051.26,1089.77 1049.58,1092.06 1058.33,1109.19 1036.49,1138.97 1038.54,1142.99 
										1060.38,1113.2 1069.18,1130.42 1070.86,1128.13 									"/>
									<polyline points="1090.72,1167.01 1074.73,1135.71 1051.22,1167.79 1067.5,1199.66 1069.48,1197.95 1054.91,1169.44 
										1064.78,1155.96 1078.09,1182 1079.77,1179.71 1066.46,1153.67 1075.07,1141.94 1089.04,1169.3 1090.72,1167.01 									
										"/>
									<path d="M1087.66,1197.05l9.17-12.51l6.86,13.42c4.06,7.95,4.51,14.29,1.62,18.23c-3.09,4.22-6.76,2.16-11.35-6.81
										L1087.66,1197.05 M1105.81,1196.55l-9.36-18.31l-23.52,32.07l2.05,4.01l10.99-14.98l6.41,12.55
										c4.99,9.77,4.65,14.45,0.78,19.72l-0.6,0.82c-2.02,2.75-4.01,5.09-4.53,7.42l2.05,4.01c0.42-2.19,2.79-4.92,4.43-7.17
										l0.91-1.24c4-5.45,3.79-11.11,1.68-17.13c3.48,4.91,7.4,6.11,10.39,2.03C1111.19,1215.32,1110.96,1206.62,1105.81,1196.55"
										/>
									<path d="M1110.03,1250.32c8.33-3.56,14.17-5.96,16.58-7.15l0.04,0.08c-1.06,3.17-2.93,10.66-7.01,25.89L1110.03,1250.32
										 M1129.63,1243.15l-2.39-4.67l-33.1,13.33l2.05,4.01l11.45-4.6l11,21.52l-4.74,17.72l2.2,4.3L1129.63,1243.15"/>
									<path d="M1154.08,1289.89c-7.6-14.88-17.26-14.58-23.6-5.92c-6.62,9.03-8.05,24.09-0.55,38.75
										c5.52,10.8,11.39,12.92,16.35,10.25l-2.01-3.94c-4.19,1.39-8.34-0.14-12.59-8.46c-6.67-13.05-4.04-25.54,1-32.41
										c5.07-6.92,13.13-8.89,19.61,3.8c4.51,8.83,4.7,15.89,2.83,22.38l2.01,3.94
										C1160.19,1311.24,1159.71,1300.91,1154.08,1289.89"/>
									<polyline points="1185.49,1352.49 1165.89,1314.13 1164.21,1316.42 1172.97,1333.57 1151.13,1363.35 1153.18,1367.36 
										1175.02,1337.58 1183.81,1354.78 1185.49,1352.49 									"/>
									<polyline points="1191.38,1364.03 1189.37,1360.09 1165.85,1392.16 1167.87,1396.1 1191.38,1364.03 									"/>
									<path d="M1217.69,1415.51l-2.12-4.15l-17.69,6.66c-4.91,1.89-10.83,4.02-13.14,5.31l-0.08-0.15
										c1.42-3.8,3.72-12.36,5.83-20.06l7.22-26.7l-2.16-4.23l-13.83,51.04l2.39,4.67L1217.69,1415.51"/>
									<polyline points="1238.11,1455.49 1222.13,1424.2 1198.61,1456.28 1214.9,1488.15 1216.88,1486.45 1202.31,1457.93 
										1212.18,1444.46 1225.49,1470.49 1227.16,1468.2 1213.86,1442.17 1222.46,1430.43 1236.43,1457.78 1238.11,1455.49 
																			"/>
								</g>
							</g>
						</g>
					</g>
				</g>
			</g>
			<g>
				<g class="st1">
					<defs>
						<polygon id="SVGID_3_" class="st1" points="2263.82,1026.13 1853.48,1594.82 1117.23,1711.43 1527.57,1142.74 						"/>
					</defs>
					<clipPath id="SVGID_4_">
						<use xlink:href="#SVGID_3_"  style="overflow:visible;"/>
					</clipPath>
					<g class="st3">
						<g>
							<g>
								<g>
									<path d="M1542.43,1167.3c-3.5,0.58-6.69,1.47-9.55,2.67c-2.87,1.21-5.38,2.62-7.54,4.24c-2.17,1.62-3.84,3.25-5,4.9
										c-0.49,0.69-0.88,1.35-1.15,1.97c-0.29,0.63-0.45,1.18-0.51,1.66c-0.06,0.49,0,1.03,0.17,1.59
										c0.17,0.58,0.47,1.18,0.91,1.81c0.42,0.64,0.92,1.23,1.47,1.78l1.68,1.51c1.94,1.76,3.22,3.07,3.83,3.95
										c0.61,0.87,1.03,1.61,1.28,2.2c0.23,0.59,0.27,1.2,0.12,1.81c-0.16,0.62-0.5,1.31-1.03,2.06c-1.07,1.5-2.54,2.93-4.4,4.27
										c-1.86,1.34-3.94,2.45-6.25,3.35c-2.31,0.9-4.62,1.54-6.95,1.92c-4.09,0.67-7.96,0.5-11.61-0.52
										c-0.58,1.01-1.15,1.92-1.71,2.71c2.52,0.29,4.61,0.4,6.28,0.33c1.66-0.06,3.46-0.26,5.39-0.57
										c3.01-0.5,5.99-1.31,8.93-2.45c2.95-1.14,5.55-2.53,7.82-4.19c2.27-1.65,4.08-3.43,5.44-5.35
										c0.61-0.86,1.06-1.65,1.36-2.38c0.3-0.73,0.44-1.42,0.44-2.05c-0.01-0.64-0.18-1.26-0.49-1.85
										c-0.31-0.6-0.71-1.13-1.18-1.63c-0.48-0.48-1.3-1.31-2.47-2.47c-1.18-1.16-2.09-2.12-2.76-2.87
										c-0.66-0.76-1.22-1.44-1.66-2.04c-0.44-0.61-0.74-1.17-0.89-1.72c-0.14-0.54-0.12-1.11,0.06-1.68
										c0.18-0.59,0.5-1.2,0.96-1.85c0.87-1.23,2.15-2.46,3.86-3.73c1.71-1.26,3.63-2.36,5.78-3.3c2.14-0.93,4.52-1.62,7.1-2.04
										c1.44-0.24,2.89-0.39,4.34-0.44c1.45-0.06,3.17,0.01,5.17,0.2c0.44-0.9,0.93-1.73,1.47-2.51
										C1547.77,1166.66,1544.87,1166.9,1542.43,1167.3"/>
									<path d="M1559.89,1200.71c-3.33,0.55-6.24,0.71-8.72,0.49c-2.49-0.22-4.27-0.96-5.33-2.23c-1.07-1.26-1.3-3.04-0.68-5.33
										c0.61-2.3,1.88-4.8,3.8-7.51c2.04-2.87,4.55-5.72,7.51-8.54c2.96-2.81,6.32-5.39,10.06-7.73
										c3.73-2.33,7.51-4.19,11.31-5.58c3.8-1.39,7.51-2.38,11.12-2.97c3.35-0.55,6.25-0.69,8.68-0.4
										c2.44,0.28,4.12,1.11,5.05,2.5c0.94,1.38,1.01,3.24,0.23,5.57c-0.78,2.32-2.15,4.86-4.1,7.6c-2.05,2.89-4.53,5.73-7.43,8.5
										c-2.91,2.77-6.16,5.27-9.76,7.49c-3.61,2.23-7.25,4-10.94,5.31C1567,1199.19,1563.4,1200.14,1559.89,1200.71
										 M1590.43,1159.41c-3.92,0.64-8,1.73-12.24,3.25c-4.25,1.53-8.36,3.49-12.34,5.89c-3.97,2.39-7.7,5.21-11.19,8.43
										c-3.5,3.23-6.38,6.44-8.64,9.64c-2.02,2.84-3.4,5.48-4.13,7.9c-0.74,2.41-0.56,4.34,0.51,5.8
										c1.07,1.45,3.03,2.36,5.89,2.73c2.86,0.36,6.21,0.23,10.05-0.4c4-0.66,8.18-1.79,12.55-3.41c4.37-1.62,8.47-3.62,12.3-5.99
										c3.84-2.38,7.39-5.12,10.66-8.23c3.26-3.11,6.02-6.24,8.26-9.4c2.04-2.87,3.43-5.5,4.19-7.88
										c0.75-2.38,0.58-4.36-0.49-5.93c-1.08-1.56-2.98-2.51-5.69-2.84C1597.4,1158.65,1594.17,1158.79,1590.43,1159.41"/>
									<path d="M1656.73,1149.08l-13.68,2.27c-4.96,0.82-10.18,1.66-15.63,2.54c-1.1,1.55-2.18,3.06-3.27,4.56l-4.44,6.06
										l-15.34,20.6l-8.24,10.75c0.67-0.13,1.25-0.23,1.75-0.31c0.49-0.08,1.06-0.17,1.7-0.25c3.33-4.69,8.24-11.42,14.77-20.21
										c3.79-0.69,7.37-1.31,10.74-1.87c1.6-0.26,3.75-0.6,6.48-1.01l6.94-1.09c0.59-0.81,1.16-1.53,1.68-2.13
										c-3.49,0.62-8.79,1.52-15.9,2.69l-8.29,1.29l13.19-17.71l10.82-1.78c2.29-0.38,4.84-0.79,7.64-1.22
										c2.79-0.44,5.26-0.77,7.4-0.98C1655.48,1150.65,1656.04,1149.91,1656.73,1149.08"/>
									<path d="M1698.23,1142.23l-5.91,0.97l-11.2,1.87c-6.69,1.1-13.18,2.16-19.47,3.17c-0.43,0.61-1.01,1.34-1.74,2.2
										c4.91-0.97,10.6-1.99,17.06-3.05l-24.39,32.46l-5.99,7.71c0.69-0.13,1.29-0.24,1.78-0.32c0.52-0.09,1.11-0.17,1.75-0.26
										l3.39-4.77c0.33-0.47,0.67-0.93,1.02-1.4l25.46-33.92l2.27-0.37c6.45-1.06,11.19-1.76,14.23-2.09
										C1696.94,1143.81,1697.53,1143.07,1698.23,1142.23"/>
									<path d="M1778.22,1129.12c-0.69,0.13-1.3,0.24-1.82,0.32s-1.1,0.17-1.74,0.26c-1.85,1.6-3.35,2.9-4.52,3.88l-36.48,30.59
										c-2.86,2.41-4.81,4.04-5.81,4.87l-5.01,4.09l0.65-2.58l5.55-18.86l0.51-1.46c3.25-2.75,6.33-5.33,9.22-7.72l10.48-8.63
										c-0.64,0.12-1.25,0.23-1.81,0.32c-0.57,0.09-1.18,0.19-1.82,0.27l-15.51,13.35c1.03-3.74,2.26-7.54,3.71-11.41
										c-0.67,0.13-1.23,0.23-1.68,0.3c-0.4,0.07-0.93,0.15-1.6,0.24l-1.63,5.92c-0.57,2.08-1.35,4.7-2.34,7.85l-29.22,23.89
										l-4,3.19l9.49-31.48l1.85-5.13c-0.67,0.13-1.33,0.24-1.99,0.35c-0.64,0.1-1.27,0.2-1.91,0.29
										c-0.37,1.67-0.69,2.93-0.93,3.8l-2.01,6.99l-8.24,27.88c0.64-0.12,1.26-0.23,1.87-0.33c0.6-0.1,1.22-0.19,1.86-0.28
										l26.42-21.65c2.08-1.73,3.4-2.81,3.96-3.24l2.11-1.7l-3.77,12.74l-2.98,9.61c0.66-0.11,1.33-0.22,2.04-0.34
										c0.7-0.11,1.38-0.22,2.01-0.31c4.78-4.09,9.73-8.27,14.84-12.51l21.71-18.07
										C1769.01,1136.66,1775.2,1131.54,1778.22,1129.12"/>
									<path d="M1778.62,1146.54l24.44-19.84l-4.35,16.54L1778.62,1146.54 M1806.82,1124.42c-0.64,0.12-1.36,0.25-2.14,0.38
										c-0.76,0.13-1.46,0.23-2.1,0.32l-5.13,4.25l-24.19,19.68l-27.38,22.23c0.66-0.13,1.27-0.23,1.81-0.32
										c0.55-0.09,1.15-0.18,1.78-0.27l26.47-21.94l22.17-3.64c-0.49,2.11-1.32,5.26-2.5,9.44c-1.19,4.18-2.11,7.19-2.76,9.02
										c0.66-0.13,1.26-0.23,1.78-0.32c0.5-0.08,1.09-0.17,1.75-0.26l6.11-23L1806.82,1124.42"/>
									<path d="M1853,1116.83l-8.97,1.5l-7.79,1.26l-3.41,4.77l-4.79,6.56l-17.46,23.19l-5.87,7.49c0.67-0.13,1.29-0.24,1.87-0.33
										c0.57-0.09,1.18-0.19,1.83-0.27c7.53-10.45,17.45-23.81,29.76-40.08c2.17-0.32,3.96-0.6,5.37-0.83l6.46-1.09
										c1.49-0.24,2.86-0.41,4.1-0.5c1.24-0.09,2.19-0.06,2.83,0.09c0.65,0.14,1.14,0.49,1.47,1.04c0.32,0.55,0.35,1.24,0.08,2.08
										c-0.28,0.84-0.77,1.77-1.51,2.82c-1.1,1.55-2.51,3.05-4.19,4.49c-1.69,1.44-3.54,2.71-5.56,3.82
										c-2.01,1.1-4.14,2.03-6.39,2.79c-2.25,0.76-4.41,1.3-6.47,1.64c-1.71,0.28-3.61,0.45-5.7,0.51l3.25,14.01l0.85,5.2
										c0.64-0.12,1.32-0.24,2.05-0.36c0.7-0.11,1.37-0.22,2-0.3l-4.32-17.26c0.81-0.1,1.42-0.18,1.84-0.25
										c3.33-0.55,6.62-1.52,9.88-2.94c3.27-1.42,6.32-3.2,9.15-5.35c2.83-2.15,5.06-4.36,6.68-6.64c1.3-1.83,1.96-3.37,1.99-4.63
										c0.03-1.26-0.55-2.12-1.7-2.61C1859.14,1116.16,1856.71,1116.22,1853,1116.83"/>
									<path d="M1907.57,1107.84l-5.92,0.97l-11.2,1.87c-6.68,1.1-13.17,2.16-19.46,3.17c-0.43,0.61-1.02,1.34-1.74,2.2
										c4.9-0.97,10.59-1.98,17.05-3.04l-24.38,32.46l-6,7.72c0.7-0.13,1.29-0.24,1.79-0.32c0.52-0.09,1.1-0.17,1.74-0.26
										l3.39-4.77c0.33-0.47,0.67-0.93,1.03-1.4l25.45-33.92l2.27-0.37c6.46-1.06,11.21-1.76,14.24-2.1
										C1906.28,1109.41,1906.85,1108.68,1907.57,1107.84"/>
									<path d="M1507.06,1239.95l-5.92,0.97l-11.21,1.88c-6.7,1.1-13.18,2.16-19.46,3.16c-0.44,0.62-1.01,1.35-1.73,2.2
										c4.9-0.97,10.59-1.98,17.05-3.04l-24.39,32.47l-5.99,7.71c0.69-0.13,1.29-0.24,1.79-0.32c0.52-0.09,1.1-0.17,1.74-0.26
										l3.38-4.76c0.33-0.47,0.68-0.94,1.04-1.41l25.45-33.92l2.27-0.37c6.45-1.06,11.2-1.76,14.24-2.1
										C1505.77,1241.53,1506.34,1240.79,1507.06,1239.95"/>
									<path d="M1531.03,1236.05l-8.97,1.5l-7.79,1.26l-3.41,4.77l-4.79,6.56l-17.46,23.18l-5.87,7.49
										c0.67-0.13,1.29-0.24,1.87-0.33c0.57-0.09,1.18-0.19,1.83-0.27c7.53-10.45,17.45-23.81,29.76-40.08
										c2.17-0.31,3.96-0.59,5.36-0.82l6.46-1.09c1.49-0.24,2.86-0.41,4.1-0.5c1.24-0.09,2.19-0.06,2.84,0.09
										c0.64,0.15,1.13,0.49,1.47,1.04c0.32,0.55,0.35,1.24,0.08,2.09c-0.27,0.83-0.77,1.77-1.51,2.81
										c-1.1,1.55-2.5,3.05-4.19,4.49c-1.7,1.45-3.55,2.72-5.56,3.82c-2.01,1.1-4.15,2.04-6.4,2.8c-2.25,0.76-4.41,1.3-6.47,1.64
										c-1.7,0.28-3.61,0.45-5.7,0.5l3.25,14.01l0.85,5.2c0.64-0.12,1.32-0.24,2.05-0.36c0.7-0.11,1.37-0.22,2-0.3l-4.32-17.26
										c0.8-0.09,1.41-0.17,1.83-0.24c3.33-0.55,6.63-1.53,9.89-2.95c3.27-1.41,6.32-3.2,9.14-5.34c2.83-2.15,5.06-4.36,6.68-6.64
										c1.3-1.84,1.97-3.38,1.98-4.63c0.03-1.26-0.54-2.13-1.7-2.61C1537.17,1235.38,1534.74,1235.44,1531.03,1236.05"/>
									<path d="M1549.04,1250.57l24.44-19.84l-4.36,16.54L1549.04,1250.57 M1577.24,1228.46c-0.65,0.12-1.35,0.25-2.14,0.38
										c-0.76,0.13-1.46,0.23-2.1,0.32l-5.12,4.24l-24.19,19.68l-27.39,22.23c0.67-0.13,1.28-0.24,1.82-0.32
										c0.55-0.09,1.14-0.18,1.78-0.27l26.47-21.94l22.17-3.64c-0.49,2.11-1.32,5.26-2.51,9.44c-1.19,4.18-2.11,7.19-2.77,9.02
										c0.67-0.13,1.27-0.23,1.79-0.32c0.5-0.08,1.08-0.17,1.75-0.26l6.1-22.99L1577.24,1228.46"/>
									<path d="M1632.3,1218.84c-4.1,0.67-8.3,1.78-12.59,3.32c-4.29,1.55-8.43,3.51-12.42,5.91c-3.98,2.38-7.7,5.18-11.16,8.38
										c-3.45,3.19-6.31,6.37-8.56,9.55c-2.02,2.85-3.38,5.48-4.06,7.88c-0.69,2.4-0.47,4.34,0.65,5.82
										c1.11,1.48,3.05,2.41,5.8,2.81c2.75,0.39,6.02,0.28,9.84-0.35c1.86-0.3,4.04-0.76,6.51-1.34c2.48-0.59,5.24-1.36,8.27-2.31
										c0.81-0.97,1.57-1.84,2.29-2.59c-6.28,2.2-11.58,3.66-15.9,4.37c-3.5,0.58-6.43,0.67-8.77,0.29
										c-2.34-0.38-3.99-1.23-4.95-2.55c-0.97-1.31-1.09-3.12-0.38-5.42c0.71-2.3,2.03-4.82,3.97-7.55c2-2.82,4.59-5.68,7.75-8.54
										c3.16-2.87,6.57-5.4,10.23-7.59c3.65-2.19,7.34-3.95,11.03-5.27c3.69-1.33,7.22-2.27,10.6-2.83
										c1.94-0.32,3.85-0.52,5.76-0.62c1.91-0.1,4.04-0.02,6.4,0.24c0.47-0.88,0.97-1.74,1.51-2.57c-1.52,0-2.75,0.01-3.7,0.07
										c-0.94,0.05-2.19,0.15-3.72,0.31C1635.15,1218.42,1633.69,1218.61,1632.3,1218.84"/>
									<path d="M1686.35,1210.53l-14.33,2.38c-5.1,0.84-10.55,1.72-16.33,2.66c-3.42,4.82-8.44,11.63-15.03,20.42
										c-6.6,8.79-12.11,15.99-16.51,21.58l16.84-2.79c2.9-0.48,7.48-1.22,13.75-2.23c0.45-0.63,1.02-1.36,1.74-2.2
										c-3.05,0.61-5.43,1.07-7.16,1.38c-1.74,0.32-4.81,0.83-9.23,1.56l-11.22,1.82l13.81-18.48c5.33-0.94,8.86-1.54,10.59-1.82
										l14.73-2.34c0.54-0.74,1.09-1.42,1.63-2.05c-5.8,1-10.66,1.84-14.58,2.48c-3.3,0.54-6.9,1.1-10.8,1.69l13.24-17.67
										c3.23-0.55,7.94-1.33,14.14-2.35c1.93-0.32,3.89-0.63,5.9-0.95c2.01-0.32,3.4-0.52,4.15-0.58l2.99-0.31
										C1685.11,1212.08,1685.68,1211.35,1686.35,1210.53"/>
									<path d="M1714.51,1205.9l-8.97,1.5l-7.78,1.25l-3.42,4.77l-4.79,6.56l-17.44,23.18l-5.87,7.49
										c0.66-0.13,1.28-0.24,1.87-0.33c0.57-0.09,1.18-0.19,1.82-0.27c7.54-10.46,17.45-23.81,29.76-40.08
										c2.17-0.31,3.96-0.59,5.38-0.82l6.46-1.09c1.49-0.24,2.85-0.41,4.09-0.5c1.24-0.09,2.19-0.06,2.84,0.09
										c0.64,0.15,1.13,0.49,1.47,1.04c0.33,0.55,0.35,1.24,0.09,2.09c-0.27,0.83-0.78,1.78-1.52,2.81
										c-1.1,1.55-2.49,3.05-4.19,4.49c-1.7,1.45-3.55,2.72-5.56,3.82c-2.01,1.1-4.15,2.04-6.39,2.8
										c-2.25,0.76-4.41,1.3-6.48,1.64c-1.7,0.28-3.6,0.45-5.7,0.5l3.26,14.01l0.84,5.21c0.64-0.12,1.32-0.24,2.05-0.36
										c0.7-0.11,1.37-0.22,2.01-0.31l-4.33-17.26c0.8-0.09,1.42-0.18,1.84-0.24c3.32-0.54,6.61-1.53,9.89-2.95
										c3.27-1.41,6.31-3.2,9.14-5.34c2.82-2.14,5.05-4.36,6.67-6.64c1.3-1.84,1.97-3.38,1.98-4.63c0.03-1.26-0.53-2.13-1.69-2.61
										C1720.66,1205.23,1718.22,1205.29,1714.51,1205.9"/>
									<path d="M1452.24,1315.3l-13.67,2.27c-4.97,0.82-10.19,1.67-15.64,2.55c-1.1,1.55-2.18,3.06-3.26,4.56l-4.45,6.07
										l-15.34,20.59l-8.24,10.75c0.67-0.13,1.25-0.23,1.75-0.31s1.07-0.17,1.71-0.26c3.33-4.69,8.24-11.42,14.76-20.21
										c3.8-0.69,7.37-1.31,10.75-1.87c1.6-0.26,3.75-0.6,6.47-1.01l6.94-1.09c0.59-0.81,1.17-1.53,1.69-2.13
										c-3.49,0.62-8.8,1.52-15.9,2.69l-8.29,1.29l13.18-17.71l10.82-1.78c2.3-0.38,4.85-0.79,7.64-1.22
										c2.8-0.44,5.26-0.76,7.4-0.98C1450.99,1316.87,1451.55,1316.14,1452.24,1315.3"/>
									<path d="M1457.18,1331.97l24.45-19.84l-4.35,16.54L1457.18,1331.97 M1485.39,1309.86c-0.64,0.12-1.35,0.25-2.14,0.38
										c-0.75,0.12-1.45,0.23-2.1,0.32l-5.12,4.24l-24.19,19.68l-27.39,22.23c0.67-0.13,1.27-0.23,1.82-0.32
										c0.54-0.09,1.14-0.18,1.78-0.27l26.47-21.94l22.16-3.64c-0.48,2.11-1.32,5.26-2.5,9.44c-1.19,4.18-2.1,7.19-2.76,9.02
										c0.67-0.13,1.26-0.23,1.79-0.32c0.49-0.08,1.08-0.17,1.75-0.26l6.1-23L1485.39,1309.86"/>
									<path d="M1540.45,1300.25c-4.11,0.68-8.3,1.78-12.59,3.32c-4.3,1.55-8.43,3.51-12.41,5.9c-3.99,2.4-7.71,5.19-11.16,8.38
										c-3.47,3.2-6.32,6.38-8.57,9.56c-2.02,2.85-3.38,5.48-4.06,7.87c-0.68,2.4-0.46,4.34,0.65,5.82
										c1.12,1.48,3.05,2.42,5.81,2.81c2.74,0.4,6.02,0.28,9.84-0.35c1.86-0.31,4.02-0.74,6.51-1.34c2.48-0.58,5.24-1.36,8.26-2.3
										c0.81-0.98,1.58-1.85,2.29-2.59c-6.28,2.21-11.58,3.66-15.9,4.37c-3.51,0.58-6.44,0.68-8.78,0.3
										c-2.35-0.38-3.99-1.24-4.95-2.55c-0.96-1.32-1.08-3.13-0.37-5.43c0.7-2.3,2.02-4.81,3.96-7.54
										c2.01-2.83,4.59-5.68,7.75-8.55c3.14-2.86,6.56-5.4,10.22-7.59c3.66-2.2,7.34-3.95,11.03-5.28
										c3.69-1.32,7.23-2.26,10.6-2.82c1.93-0.32,3.85-0.52,5.77-0.63c1.9-0.09,4.04-0.02,6.39,0.25
										c0.47-0.89,0.97-1.75,1.52-2.58c-1.52,0-2.76,0.03-3.71,0.07c-0.94,0.05-2.18,0.16-3.72,0.32
										C1543.3,1299.82,1541.84,1300.02,1540.45,1300.25"/>
									<path d="M1594.51,1291.93l-14.33,2.38c-5.1,0.84-10.55,1.72-16.33,2.66c-3.43,4.83-8.44,11.64-15.04,20.43
										c-6.6,8.8-12.11,15.99-16.52,21.59l16.85-2.79c2.9-0.48,7.48-1.22,13.74-2.23c0.45-0.64,1.03-1.37,1.73-2.2
										c-3.04,0.61-5.42,1.07-7.16,1.38c-1.73,0.31-4.81,0.83-9.22,1.56l-11.23,1.82l13.82-18.5c5.33-0.93,8.85-1.53,10.58-1.81
										l14.73-2.34c0.55-0.74,1.09-1.41,1.63-2.05c-5.79,1.01-10.65,1.83-14.58,2.48c-3.3,0.54-6.89,1.11-10.8,1.69l13.23-17.66
										c3.24-0.55,7.95-1.33,14.14-2.35c1.94-0.32,3.91-0.64,5.92-0.96c2-0.31,3.38-0.5,4.15-0.57l3-0.32
										C1593.26,1293.49,1593.82,1292.76,1594.51,1291.93"/>
									<polyline points="1330.78,1458.32 1319.67,1460.15 1299.67,1488.33 1310.78,1486.5 1330.78,1458.32 									"/>
									<path d="M1368.02,1452.2l-9.04,1.49l-5.92,8.34c-1.79,2.52-3.25,4.94-4.4,7.25c0.23-1.41,0.24-3.01,0.02-4.78l-1.1-8.93
										l-10.49,1.72l-20,28.18l9.01-1.48l9.68-13.65c0.9-1.27,1.7-2.76,2.4-4.48c-0.33,2.07-0.42,3.8-0.28,5.19l1.07,10.82
										l9.04-1.49L1368.02,1452.2"/>
									<polyline points="1396.68,1447.49 1371.16,1451.69 1366.37,1458.44 1373.87,1457.21 1358.67,1478.63 1369.19,1476.91 
										1384.39,1455.48 1391.89,1454.25 1396.68,1447.49 									"/>
									<polyline points="1427.05,1442.5 1399.83,1446.98 1379.84,1475.16 1407.05,1470.68 1411.83,1463.95 1395.51,1466.63 
										1398.78,1462.03 1411.97,1459.86 1416.4,1453.61 1403.21,1455.78 1406.11,1451.69 1422.43,1449.01 1427.05,1442.5 
																			"/>
									<path d="M1434.48,1451.33l3.82-5.38l5.11-0.84c2.85-0.47,3.63,0.19,2.35,2c-0.63,0.88-1.52,1.62-2.7,2.22
										c-1.16,0.59-2.45,1-3.84,1.23L1434.48,1451.33 M1450.35,1438.68l-18.9,3.1l-20,28.18l11.11-1.82l7.65-10.78l3.49-0.57
										l-2.36,9.91l12.31-2.02l2.18-11.21c3.24-1.36,5.74-2.75,7.48-4.14c1.73-1.38,3.18-2.89,4.32-4.51
										c1.77-2.49,2.03-4.31,0.81-5.45C1457.21,1438.22,1454.52,1437.99,1450.35,1438.68"/>
									<path d="M1467.3,1450.44l8.73-8.65l-2.88,7.69L1467.3,1450.44 M1488.83,1432.35l-11.74,1.93l-31.17,30.02l9.02-1.48
										l6.11-5.91l9.69-1.59l-1.9,5.22l11.34-1.86L1488.83,1432.35"/>
									<path d="M1517.37,1427.29c-5.12,0.84-10.07,2.85-14.85,6.03c-4.79,3.18-8.75,6.98-11.88,11.4
										c-3.17,4.46-4.14,7.71-2.91,9.75c1.22,2.03,4.29,2.65,9.21,1.84c4.08-0.67,8.17-2.16,12.28-4.46
										c4.11-2.3,7.63-5.22,10.56-8.75l-9.81,1.19c-2.56,3.17-5.31,4.99-8.24,5.47c-1.65,0.27-2.54-0.06-2.66-1.02
										c-0.13-0.95,0.9-2.96,3.07-6.03c3.89-5.48,7.58-8.5,11.07-9.07c1.25-0.21,2.05,0.03,2.38,0.72
										c0.33,0.68-0.17,1.97-1.52,3.86l10.68-2.14c2.09-3.36,2.57-5.86,1.47-7.5C1525.11,1426.92,1522.16,1426.5,1517.37,1427.29"
										/>
									<polyline points="1558.88,1420.84 1533.37,1425.04 1528.57,1431.79 1536.07,1430.56 1520.87,1451.98 1531.39,1450.26 
										1546.59,1428.83 1554.09,1427.6 1558.88,1420.84 									"/>
									<polyline points="1620.92,1410.65 1612.42,1412.05 1595.82,1429.13 1601.98,1413.76 1593.26,1415.19 1576.83,1432.22 
										1583.27,1416.84 1572.83,1418.55 1562.44,1445.15 1572.16,1443.56 1587.97,1427.23 1582.01,1441.94 1591.33,1440.41 
										1620.92,1410.65 									"/>
									<polyline points="1635.55,1408.25 1624.45,1410.07 1604.45,1438.25 1615.55,1436.43 1635.55,1408.25 									"/>
									<polyline points="1664.22,1403.54 1638.7,1407.73 1633.91,1414.48 1641.41,1413.25 1626.2,1434.68 1636.72,1432.95 
										1651.93,1411.52 1659.43,1410.29 1664.22,1403.54 									"/>
									<polyline points="1698.06,1397.98 1686.96,1399.8 1679.61,1410.17 1671.12,1411.56 1678.47,1401.19 1667.38,1403.02 
										1647.38,1431.2 1658.48,1429.37 1666.26,1418.41 1674.75,1417.01 1666.96,1427.98 1678.06,1426.16 1698.06,1397.98 
																			"/>
									<path d="M1716.32,1409.53l8.73-8.65l-2.88,7.69L1716.32,1409.53 M1737.84,1391.44l-11.74,1.93l-31.17,30.02l9.02-1.48
										l6.11-5.91l9.69-1.59l-1.9,5.22l11.34-1.86L1737.84,1391.44"/>
									<path d="M1783.44,1383.95l-9.04,1.49l-5.92,8.34c-1.79,2.52-3.26,4.94-4.39,7.25c0.23-1.41,0.24-3.01,0.02-4.78l-1.1-8.93
										l-10.5,1.73l-20,28.18l9.01-1.48l9.68-13.65c0.9-1.27,1.7-2.76,2.4-4.48c-0.33,2.07-0.42,3.8-0.28,5.19l1.07,10.82
										l9.04-1.49L1783.44,1383.95"/>
									<path d="M1801.73,1395.5l8.73-8.65l-2.88,7.69L1801.73,1395.5 M1823.25,1377.41l-11.74,1.93l-31.17,30.02l9.02-1.48
										l6.11-5.91l9.69-1.59l-1.9,5.22l11.34-1.86L1823.25,1377.41"/>
									<path d="M1867.06,1370.21l-9.13,1.5l-19.49,19.14c0.32-0.83,0.62-1.67,0.87-2.51l5.17-14.42l-11.7,1.92l-8.27,26.25
										l11.31-1.86L1867.06,1370.21"/>
									<path d="M1866.89,1384.79l8.72-8.65l-2.87,7.69L1866.89,1384.79 M1888.41,1366.7l-11.74,1.93l-31.17,30.02l9.01-1.48
										l6.12-5.91l9.69-1.59l-1.9,5.22l11.34-1.86L1888.41,1366.7"/>
									<polyline points="1923.39,1360.95 1897.86,1365.15 1893.07,1371.9 1900.58,1370.67 1885.37,1392.09 1895.89,1390.37 
										1911.09,1368.94 1918.6,1367.71 1923.39,1360.95 									"/>
									<path d="M1922.98,1375.57l8.73-8.65l-2.87,7.69L1922.98,1375.57 M1944.51,1357.48l-11.73,1.93l-31.17,30.02l9.01-1.48
										l6.11-5.91l9.7-1.59l-1.9,5.22l11.33-1.86L1944.51,1357.48"/>
									<path d="M1962.21,1364.62l3.82-5.38l5.12-0.84c2.85-0.47,3.63,0.19,2.35,2c-0.63,0.88-1.53,1.62-2.7,2.22
										c-1.16,0.59-2.45,1-3.85,1.23L1962.21,1364.62 M1978.08,1351.97l-18.89,3.1l-20,28.18l11.1-1.82l7.65-10.78l3.5-0.58
										l-2.36,9.91l12.3-2.02l2.17-11.21c3.25-1.37,5.75-2.75,7.48-4.14c1.74-1.39,3.18-2.89,4.32-4.51
										c1.77-2.49,2.05-4.31,0.82-5.45C1984.95,1351.51,1982.25,1351.28,1978.08,1351.97"/>
									<polyline points="1306.04,1507.2 1280.52,1511.39 1275.74,1518.14 1283.24,1516.91 1268.03,1538.33 1278.55,1536.61 
										1293.76,1515.18 1301.26,1513.94 1306.04,1507.2 									"/>
									<polyline points="1339.88,1501.64 1328.77,1503.47 1321.42,1513.82 1312.95,1515.22 1320.3,1504.86 1309.2,1506.68 
										1289.21,1534.85 1300.31,1533.03 1308.08,1522.07 1316.56,1520.68 1308.78,1531.64 1319.89,1529.81 1339.88,1501.64 
																			"/>
									<path d="M1344.57,1515.42l8.72-8.66l-2.87,7.7L1344.57,1515.42 M1366.1,1497.33l-11.74,1.93l-31.16,30.01l9.02-1.48
										l6.11-5.91l9.69-1.59l-1.9,5.22l11.34-1.86L1366.1,1497.33"/>
									<polyline points="1401.07,1491.59 1375.55,1495.78 1370.77,1502.52 1378.27,1501.29 1363.06,1522.72 1373.58,1520.99 
										1388.79,1499.56 1396.29,1498.33 1401.07,1491.59 									"/>
									<polyline points="1443.94,1484.54 1417.79,1488.84 1397.8,1517.01 1408.61,1515.24 1416.1,1504.69 1427.89,1502.75 
										1432.39,1496.42 1420.59,1498.35 1423.85,1493.77 1439.18,1491.25 1443.94,1484.54 									"/>
									<path d="M1446.98,1503.66c-3.49,0.57-3.38-1.76,0.34-7c3.96-5.58,7.76-8.68,11.4-9.27c3.38-0.56,3.33,1.61-0.14,6.51
										c-2.4,3.39-4.47,5.78-6.2,7.19C1450.65,1502.5,1448.84,1503.36,1446.98,1503.66 M1463.2,1480.99
										c-5.44,0.89-10.66,2.96-15.68,6.21c-5.02,3.25-9.01,6.98-12,11.19c-3.12,4.4-4.03,7.66-2.68,9.76
										c1.34,2.1,4.55,2.74,9.64,1.9c5.05-0.83,10.13-2.86,15.25-6.09c5.1-3.22,9.25-7.07,12.42-11.54
										c3.07-4.33,3.94-7.52,2.6-9.59C1471.42,1480.79,1468.24,1480.17,1463.2,1480.99"/>
									<polyline points="1495.75,1476.03 1484.64,1477.86 1464.65,1506.03 1490.02,1501.86 1494.92,1494.95 1480.67,1497.29 
										1495.75,1476.03 									"/>
									<polyline points="1524.98,1471.23 1513.87,1473.05 1493.88,1501.23 1519.25,1497.06 1524.15,1490.14 1509.9,1492.49 
										1524.98,1471.23 									"/>
									<path d="M1542.46,1487.98c-3.5,0.58-3.38-1.76,0.34-7c3.96-5.58,7.76-8.68,11.4-9.27c3.38-0.56,3.32,1.61-0.15,6.51
										c-2.4,3.39-4.46,5.78-6.19,7.19C1546.12,1486.81,1544.32,1487.67,1542.46,1487.98 M1558.68,1465.31
										c-5.44,0.89-10.67,2.96-15.69,6.22s-9.01,6.98-12,11.19c-3.12,4.4-4.02,7.66-2.67,9.76c1.34,2.1,4.55,2.74,9.64,1.9
										c5.05-0.83,10.14-2.86,15.24-6.08c5.11-3.22,9.25-7.07,12.42-11.54c3.07-4.33,3.94-7.52,2.6-9.59
										C1566.9,1465.1,1563.72,1464.48,1558.68,1465.31"/>
									<polyline points="1624.52,1454.87 1616.02,1456.27 1599.42,1473.35 1605.58,1457.99 1596.86,1459.42 1580.42,1476.44 
										1586.86,1461.06 1576.41,1462.78 1566.04,1489.37 1575.77,1487.77 1591.57,1471.45 1585.6,1486.16 1594.93,1484.62 
										1624.52,1454.87 									"/>
									<path d="M1641.49,1451.7c-4.86,0.8-9.21,2.29-13.04,4.48c-3.84,2.18-6.7,4.61-8.58,7.27c-1.46,2.06-1.84,3.71-1.12,4.94
										c0.71,1.24,3.91,1.8,9.57,1.71c1.48-0.02,2.42,0.1,2.83,0.32s0.4,0.65-0.04,1.26c-0.82,1.15-2.63,1.96-5.42,2.42
										c-3.59,0.59-5.01-0.18-4.26-2.31l-11.34,3.14c-2,5.39,1.41,7.35,10.24,5.91c4.82-0.79,9.35-2.32,13.57-4.58
										c4.23-2.26,7.34-4.8,9.37-7.66c1.28-1.81,1.78-3.27,1.51-4.4c-0.27-1.13-1.14-1.81-2.56-2.07
										c-1.43-0.25-4.05-0.38-7.89-0.38c-1.38-0.01-2.25-0.1-2.59-0.31c-0.34-0.2-0.32-0.56,0.05-1.08
										c0.83-1.17,2.45-1.95,4.87-2.35c2.91-0.48,4.18,0.14,3.79,1.87l10.74-3.68C1652.09,1451.99,1648.85,1450.49,1641.49,1451.7
										"/>
									<polyline points="1704.6,1441.72 1694.89,1443.31 1682.23,1453.59 1682.48,1445.35 1670.33,1447.35 1670.97,1461.59 
										1662.51,1473.52 1673.29,1471.75 1681.75,1459.82 1704.6,1441.72 									"/>
									<path d="M1704.68,1461.32c-3.49,0.57-3.38-1.76,0.34-7c3.96-5.58,7.77-8.68,11.41-9.28c3.37-0.55,3.32,1.61-0.15,6.51
										c-2.4,3.39-4.46,5.78-6.19,7.19C1708.35,1460.16,1706.55,1461.01,1704.68,1461.32 M1720.91,1438.65
										c-5.44,0.89-10.67,2.96-15.69,6.22s-9.01,6.98-12,11.19c-3.12,4.4-4.02,7.66-2.68,9.76c1.35,2.1,4.56,2.74,9.65,1.9
										c5.05-0.83,10.14-2.86,15.24-6.08c5.11-3.22,9.25-7.07,12.42-11.54c3.07-4.33,3.94-7.52,2.6-9.59
										C1729.13,1438.44,1725.95,1437.82,1720.91,1438.65"/>
									<path d="M1771.69,1430.69l-8.75,1.44l-11.7,16.49c-1.16,1.64-2.03,2.75-2.59,3.34c-0.56,0.59-1.43,1.18-2.61,1.76
										c-1.17,0.59-2.43,1-3.76,1.21c-1.61,0.26-2.55,0.14-2.84-0.36s0.04-1.42,1-2.77l12.84-18.1l-11.29,1.86l-13.56,19.11
										c-2.38,3.36-2.72,5.55-1.01,6.58c1.71,1.03,4.84,1.18,9.4,0.43c4.33-0.71,8.4-2.07,12.2-4.06
										c3.78-1.98,6.94-4.75,9.44-8.28L1771.69,1430.69"/>
									<path d="M1780.67,1439.26l3.82-5.38l5.11-0.84c2.85-0.47,3.63,0.2,2.36,2c-0.63,0.88-1.53,1.62-2.7,2.22
										c-1.18,0.6-2.45,1-3.85,1.23L1780.67,1439.26 M1796.52,1426.61l-18.9,3.1l-19.99,28.17l11.11-1.82l7.65-10.78l3.5-0.58
										l-2.37,9.91l12.32-2.02l2.16-11.2c3.25-1.37,5.75-2.75,7.48-4.14c1.73-1.38,3.18-2.89,4.33-4.52
										c1.77-2.49,2.03-4.31,0.8-5.44C1803.38,1426.16,1800.69,1425.93,1796.52,1426.61"/>
									<polyline points="1287.02,1555.14 1272.45,1557.53 1256.83,1573.31 1262.2,1559.21 1247.68,1561.6 1227.69,1589.77 
										1236.01,1588.4 1250.31,1568.26 1242.97,1587.26 1250.02,1586.1 1271.01,1564.86 1256.71,1585 1267.03,1583.31 
										1287.02,1555.14 									"/>
									<path d="M1293.14,1573.75c-3.49,0.57-3.39-1.75,0.34-7c3.96-5.58,7.77-8.68,11.41-9.28c3.37-0.55,3.32,1.62-0.16,6.52
										c-2.4,3.39-4.46,5.78-6.18,7.18C1296.81,1572.58,1295.01,1573.44,1293.14,1573.75 M1309.37,1551.08
										c-5.44,0.89-10.68,2.97-15.69,6.22c-5.02,3.25-9.02,6.99-12,11.19c-3.12,4.4-4.02,7.66-2.67,9.76
										c1.33,2.11,4.55,2.74,9.64,1.9c5.05-0.83,10.14-2.86,15.24-6.07c5.12-3.23,9.26-7.08,12.43-11.55
										c3.06-4.32,3.93-7.51,2.6-9.59C1317.59,1550.87,1314.41,1550.25,1309.37,1551.08"/>
									<path d="M1360.97,1542.98l-9.12,1.5l-19.49,19.14c0.33-0.83,0.62-1.67,0.86-2.51l5.17-14.42l-11.7,1.92l-8.25,26.24
										l11.31-1.86L1360.97,1542.98"/>
									<polyline points="1391.53,1537.96 1364.31,1542.44 1344.32,1570.61 1371.54,1566.13 1376.31,1559.41 1359.98,1562.09 
										1363.24,1557.49 1376.45,1555.32 1380.89,1549.06 1367.68,1551.23 1370.58,1547.15 1386.91,1544.47 1391.53,1537.96 
																			"/>
									<polyline points="1435.25,1530.78 1420.68,1533.17 1405.06,1548.96 1410.43,1534.86 1395.93,1537.24 1375.94,1565.41 
										1384.26,1564.04 1398.55,1543.9 1391.21,1562.9 1398.25,1561.74 1419.24,1540.5 1404.95,1560.64 1415.26,1558.95 
										1435.25,1530.78 									"/>
									<polyline points="1468.77,1525.27 1441.55,1529.74 1421.56,1557.92 1448.78,1553.44 1453.55,1546.72 1437.23,1549.4 
										1440.5,1544.8 1453.69,1542.63 1458.13,1536.37 1444.94,1538.54 1447.83,1534.46 1464.15,1531.78 1468.77,1525.27 
																			"/>
									<path d="M1504.09,1519.47l-9.03,1.48l-5.92,8.34c-1.79,2.52-3.25,4.94-4.4,7.25c0.24-1.42,0.24-3.01,0.02-4.78l-1.1-8.93
										l-10.49,1.72l-19.99,28.17l9.01-1.48l9.68-13.64c0.9-1.27,1.7-2.76,2.4-4.48c-0.33,2.07-0.42,3.8-0.28,5.18l1.07,10.82
										l9.03-1.48L1504.09,1519.47"/>
									<polyline points="1532.77,1514.76 1507.25,1518.95 1502.46,1525.7 1509.95,1524.47 1494.76,1545.89 1505.28,1544.16 
										1520.48,1522.74 1527.97,1521.51 1532.77,1514.76 									"/>
									<path d="M1550.14,1511.52c-4.85,0.8-9.2,2.29-13.04,4.48c-3.84,2.19-6.7,4.61-8.58,7.27c-1.46,2.06-1.84,3.71-1.13,4.95
										c0.72,1.23,3.91,1.79,9.59,1.7c1.48-0.02,2.42,0.1,2.82,0.33c0.4,0.24,0.4,0.65-0.04,1.26c-0.82,1.15-2.63,1.96-5.41,2.42
										c-3.59,0.59-5.02-0.18-4.27-2.31l-11.33,3.14c-2,5.39,1.41,7.35,10.23,5.91c4.83-0.79,9.35-2.32,13.57-4.57
										c4.22-2.26,7.35-4.81,9.37-7.67c1.28-1.8,1.77-3.27,1.5-4.4c-0.27-1.13-1.13-1.81-2.56-2.07
										c-1.43-0.24-4.05-0.38-7.88-0.38c-1.39,0-2.25-0.1-2.6-0.3c-0.34-0.2-0.33-0.56,0.04-1.08c0.83-1.17,2.46-1.96,4.88-2.36
										c2.92-0.48,4.18,0.14,3.8,1.87l10.74-3.68C1560.74,1511.82,1557.51,1510.31,1550.14,1511.52"/>
									<polyline points="1564.34,1527.8 1554.27,1529.46 1548.92,1536.99 1558.99,1535.33 1564.34,1527.8 									"/>
								</g>
							</g>
						</g>
					</g>
				</g>
			</g>
			<g>
				<g class="st1">
					<defs>
						<polygon id="SVGID_5_" class="st1" points="1882.77,288.58 2263.82,1026.13 1527.57,1142.74 1146.52,405.19 						"/>
					</defs>
					<clipPath id="SVGID_6_">
						<use xlink:href="#SVGID_5_"  style="overflow:visible;"/>
					</clipPath>
					<g class="st4">
						<g>
							<g>
								<g>
									<path d="M1286.37,530.06l-15.76-54.78l38.94,51.11L1286.37,530.06 M1275.94,447.47l-30.42,4.82l34.9,132.1l21.06-3.34
										l-7.28-27.24l31.59-5l19.47,25.31l27.72-4.39L1275.94,447.47"/>
									<path d="M1289.54,523.08l-7.26-25.2l17.92,23.51L1289.54,523.08 M1270.61,475.29l15.76,54.78l23.18-3.67L1270.61,475.29
										 M1280.42,584.39l-34.9-132.1l30.42-4.82l97.05,122.26l-27.72,4.39l-19.47-25.31l-31.59,5l7.28,27.24L1280.42,584.39
										 M1276.36,440.9l-37.48,5.94l38.2,144.56l31.05-4.92l-7.28-27.24l24.44-3.87l19.47,25.31l37.79-5.99L1276.36,440.9"/>
									<path d="M1401.13,427.64l-21.38,3.39l27.17,96.99l-7.68-10.23c-2.96-3.93-6.12-7.98-9.42-12.03l-52.53-68.01l-28.76,4.56
										l98.14,122.08l29.21-4.63L1401.13,427.64"/>
									<path d="M1406.92,528.02l-27.17-96.99l21.38-3.39l34.73,132.13l-29.21,4.63l-98.14-122.08l28.76-4.56l52.53,68.01
										c3.3,4.05,6.46,8.1,9.42,12.03L1406.92,528.02 M1404.48,420.61l-31.42,4.98l22.46,80.24c-0.68-0.87-1.36-1.71-2.06-2.55
										l-55.69-72.1l-38.89,6.16l107.38,133.6l36.22-5.74L1404.48,420.61"/>
									<path d="M1474.78,500.22l-15.76-54.78l38.94,51.11L1474.78,500.22 M1464.33,417.63l-30.41,4.82l34.89,132.1l21.06-3.34
										l-7.28-27.24l31.59-5l19.47,25.31l27.72-4.39L1464.33,417.63"/>
									<path d="M1477.93,493.24l-7.25-25.2l17.91,23.51L1477.93,493.24 M1459.02,445.45l15.76,54.78l23.18-3.67L1459.02,445.45
										 M1468.82,554.55l-34.89-132.1l30.41-4.82l97.05,122.26l-27.72,4.39l-19.47-25.31l-31.59,5l7.28,27.24L1468.82,554.55
										 M1464.75,411.07l-37.46,5.93l38.18,144.56l31.05-4.92l-7.28-27.24l24.44-3.87l19.47,25.31l37.81-5.99L1464.75,411.07"/>
									<polyline points="1564.84,401.71 1495.83,412.64 1509.21,438.55 1530.89,435.11 1583.23,536.43 1608.88,532.37 
										1556.53,431.05 1578.23,427.62 1564.84,401.71 									"/>
									<path d="M1509.21,438.55l-13.38-25.9l69.01-10.93l13.38,25.9l-21.69,3.44l52.34,101.31l-25.64,4.06l-52.34-101.31
										L1509.21,438.55 M1566.5,394.95l-78.56,12.44l19.59,37.92l21.69-3.44l52.33,101.3l35.19-5.57l-52.33-101.3l21.68-3.43
										L1566.5,394.95"/>
									<path d="M1636.97,474.53l-15.76-54.78l38.94,51.11L1636.97,474.53 M1626.54,391.94l-30.42,4.82l34.89,132.1l21.08-3.34
										l-7.29-27.24l31.59-5l19.47,25.31l27.73-4.39L1626.54,391.94"/>
									<path d="M1640.14,467.55l-7.26-25.2l17.92,23.51L1640.14,467.55 M1621.21,419.76l15.76,54.78l23.18-3.67L1621.21,419.76
										 M1631.01,528.86l-34.89-132.1l30.42-4.82l97.05,122.26l-27.73,4.39l-19.47-25.31l-31.59,5l7.29,27.24L1631.01,528.86
										 M1626.95,385.38l-37.46,5.93l38.18,144.56l31.05-4.92l-7.28-27.24l24.44-3.87l19.47,25.31l37.8-5.99L1626.95,385.38"/>
									<path d="M1728.23,434l-16.26-31.46l17.17-2.72c12.81-2.03,19.83,7.54,22.88,13.44c2.64,5.11,3.14,9.49,1.45,12.67
										c-1.56,2.95-4.64,4.8-9.15,5.52L1728.23,434 M1725.36,376.29l-52.24,8.27l65.73,127.22l27.33-4.33l-26.32-50.95l14.15-2.24
										l41.6,48.52l30.38-4.81l-47.65-53.64l1.4-1.55c4.8-5.27,6.95-10.81,6.42-16.43c-0.55-5.79-2.69-12.34-6.39-19.5
										c-5.66-10.96-13.07-19.04-22.68-24.72C1747.44,376.45,1736.77,374.48,1725.36,376.29"/>
									<path d="M1729.9,427.26l-10.07-19.48l12.41-1.96c8.81-1.4,12.65,3.66,15,8.21c1.65,3.2,1.95,5.55,0.98,7.44
										c-1.11,2.1-3.47,3.45-6.99,4.01L1729.9,427.26 M1729.15,399.82l-17.17,2.72l16.26,31.46l16.1-2.55
										c4.51-0.71,7.59-2.56,9.15-5.52c1.68-3.19,1.19-7.56-1.45-12.67C1748.97,407.36,1741.95,397.79,1729.15,399.82
										 M1738.85,511.78l-65.73-127.22l52.24-8.27c11.4-1.81,22.08,0.16,31.72,5.85c9.61,5.68,17.02,13.77,22.68,24.72
										c3.7,7.16,5.84,13.71,6.39,19.5c0.53,5.62-1.62,11.16-6.42,16.43l-1.4,1.55l47.65,53.64l-30.38,4.81l-41.6-48.52
										l-14.15,2.24l26.32,50.95L1738.85,511.78 M1722.26,370.28l-57.02,9.03l71.92,139.22l36.88-5.84l-26.32-50.95l6.1-0.97
										l41.59,48.53l40.79-6.46l-50.24-56.56c4.48-5.56,6.45-11.55,5.88-17.8c-0.63-6.71-3.09-14.24-7.29-22.37
										c-6.52-12.63-15.52-22.39-26.71-29.01C1746.82,370.59,1734.84,368.29,1722.26,370.28"/>
									<path d="M1380.46,688.17c-9.6,1.52-16.35,6.07-20.04,13.55c-3.33,6.72-3.53,15.49-0.62,26.08l22.63,0.87
										c-3.55-12.61,1.86-16.33,7.25-17.18c3.92-0.62,7.91,0.3,11.87,2.75c4.06,2.53,7.26,6.03,9.52,10.4
										c1.79,3.47,2.53,6.97,2.19,10.43c-0.39,3.72-3.75,6.04-10.3,7.08l-8.34,1.32l11.27,21.82l10.33-1.64
										c4.02-0.64,7.14-0.57,9.51,0.22c2.39,0.79,5.05,2.37,7.91,4.7c3.01,2.44,5.45,5.46,7.27,8.97
										c2.69,5.2,3.37,9.66,2.03,13.24c-1.28,3.45-4.16,5.54-8.56,6.24c-6.3,1-15.85-0.95-26.45-15.21l-20.59,7.08
										c18.61,24.12,38.61,34.13,61.05,30.58c11.58-1.83,19.35-6.7,23.11-14.48c3.68-7.65,2.49-17.11-3.63-28.97
										c-7.57-14.66-18-23.09-31.86-25.74l-8.89-1.71l5.92-4.03c3.27-2.21,4.98-5.73,5.27-10.72c0.29-5.01-1.14-10.48-4.37-16.73
										c-5.43-10.51-12.75-18.18-22.4-23.46C1401.77,688.3,1391.31,686.45,1380.46,688.17"/>
									<path d="M1382.44,728.67l-22.63-0.87c-2.92-10.59-2.71-19.36,0.62-26.08c3.69-7.47,10.44-12.03,20.04-13.55
										c10.85-1.72,21.31,0.13,31.08,5.47c9.65,5.28,16.97,12.96,22.4,23.46c3.22,6.24,4.66,11.72,4.37,16.73
										c-0.29,4.99-2,8.51-5.27,10.72l-5.92,4.03l8.89,1.71c13.86,2.65,24.28,11.08,31.86,25.74c6.12,11.86,7.31,21.32,3.63,28.97
										c-3.75,7.78-11.53,12.65-23.11,14.48c-22.44,3.55-42.44-6.45-61.05-30.58l20.59-7.08c10.6,14.26,20.15,16.21,26.45,15.21
										c4.39-0.7,7.27-2.79,8.56-6.24c1.34-3.58,0.66-8.04-2.03-13.24c-1.81-3.51-4.25-6.53-7.27-8.97
										c-2.86-2.33-5.52-3.91-7.91-4.7c-2.38-0.79-5.49-0.86-9.51-0.22l-10.33,1.64l-11.27-21.82l8.34-1.32
										c6.55-1.04,9.92-3.36,10.3-7.08c0.35-3.46-0.39-6.96-2.19-10.43c-2.26-4.37-5.46-7.87-9.52-10.4
										c-3.96-2.45-7.95-3.37-11.87-2.75C1384.3,712.34,1378.89,716.05,1382.44,728.67 M1377.37,682.18
										c-10.63,1.68-18.12,6.76-22.25,15.12c-4.19,8.41-4.06,19.56,0.3,33.09l1.04,3.22l33.2,1.28l-1.02-2.91
										c-3.16-8.96-1.84-13.57,4.14-14.51c2.73-0.43,5.3,0.13,7.85,1.71c2.46,1.52,4.31,3.54,5.68,6.2
										c1.1,2.12,1.52,4.25,1.28,6.55c-0.11,1.13-1.26,3.2-7.73,4.22l-13.11,2.08l17.46,33.8l15.1-2.39
										c4.28-0.68,6.33-0.3,7.18-0.03c1.46,0.49,3.2,1.56,5.18,3.17c1.86,1.5,3.32,3.31,4.46,5.52c1.76,3.4,2.19,6.13,1.35,8.39
										c-0.9,2.4-2.91,3.83-6.2,4.35c-7.27,1.15-13.98-3.22-21.14-13.74l-1.84-2.72l-29.54,10.15l2.31,3.18
										c21.18,28.97,44.86,41.62,70.42,37.58c12.62-2,21.14-7.42,25.32-16.1c4.3-8.93,2.91-20.41-4.17-34.12
										c-7.7-14.91-18.25-24.69-31.39-29.14c1.61-2.49,2.52-5.63,2.74-9.39c0.34-6.09-1.43-12.95-5.27-20.4
										c-6.36-12.3-15.34-21.68-26.67-27.89C1400.96,682.39,1389.3,680.29,1377.37,682.18"/>
									<path d="M1518.71,779.46l-40.46-78.31l10.73-1.7c7.01-1.11,14.53,2.08,22.33,9.46c7.31,6.92,13.67,15.58,18.93,25.77
										c6.15,11.91,9.13,21.83,8.85,29.5c-0.29,8.04-3.53,12.61-9.66,13.58L1518.71,779.46 M1476.45,675.18l-38.06,6.03
										l65.73,127.22l40.07-6.35c14.21-2.25,22.83-10.08,25.6-23.26c2.79-13.23-0.77-29.57-10.61-48.61
										c-8.6-16.64-20.49-30.83-35.38-42.17C1509.13,676.86,1493.21,672.53,1476.45,675.18"/>
									<path d="M1520.38,772.71l-34.27-66.33l5.97-0.95c5.27-0.83,10.71,1.5,16.68,7.15c6.38,6.05,12.01,13.74,16.71,22.85
										c5.5,10.65,8.18,19.37,7.93,25.93c-0.22,6.28-2.52,9.68-7.06,10.4L1520.38,772.71 M1488.99,699.45l-10.73,1.7l40.46,78.31
										l10.73-1.7c6.12-0.97,9.37-5.53,9.66-13.58c0.28-7.67-2.7-17.59-8.85-29.5c-5.26-10.18-11.63-18.85-18.93-25.77
										C1503.51,701.53,1496,698.34,1488.99,699.45 M1504.11,808.43l-65.73-127.22l38.06-6.03c16.76-2.65,32.68,1.67,47.34,12.86
										c14.89,11.34,26.78,25.53,35.38,42.17c9.83,19.03,13.4,35.38,10.61,48.61c-2.77,13.19-11.39,21.01-25.6,23.26
										L1504.11,808.43 M1473.36,669.19l-42.83,6.78l71.92,139.22l44.83-7.1c15.57-2.47,25.02-11.1,28.09-25.68
										c3.05-14.53-0.79-32.34-11.44-52.95c-9.34-18.08-22.27-33.49-38.44-45.81C1509.14,671.16,1491.6,666.3,1473.36,669.19"/>
									<polyline points="1611.52,653.79 1584.19,658.12 1649.91,785.34 1677.24,781.01 1611.52,653.79 									"/>
									<path d="M1649.91,785.34l-65.73-127.22l27.33-4.33l65.73,127.22L1649.91,785.34 M1613.2,647.05l-36.87,5.84l71.92,139.22
										l36.87-5.84L1613.2,647.05"/>
									<path d="M1719.16,636.74l-21.35,3.38l18.82,36.43c6.03,11.68,12.83,23.13,20.18,34.03l17.22,25.47l-20.87-23.04
										c-6.14-6.79-14.18-14.69-23.84-23.43l-48.16-43.65l-26.64,4.22l65.73,127.22l21.28-3.37l-31.78-61.5
										c-2.96-5.72-7.46-12.69-13.39-20.77l3.52-2.62c9.16,10.03,17.56,18.57,25,25.41l57.61,52.99l22.39-3.55L1719.16,636.74"/>
									<path d="M1754.03,736.06l-17.22-25.47c-7.35-10.9-14.15-22.36-20.18-34.03l-18.82-36.43l21.35-3.38l65.73,127.22
										l-22.39,3.55l-57.61-52.99c-7.44-6.84-15.84-15.38-25-25.41l-3.52,2.62c5.93,8.07,10.43,15.04,13.39,20.77l31.78,61.5
										l-21.28,3.37l-65.73-127.22l26.64-4.22l48.16,43.65c9.66,8.75,17.7,16.64,23.84,23.43L1754.03,736.06 M1720.85,630
										l-30.91,4.9l21.91,42.42c3.09,5.97,6.38,11.89,9.83,17.71c-3.11-2.97-6.45-6.06-9.98-9.28l-51-46.22l-34.04,5.39
										l71.92,139.22l30.82-4.88l-34.88-67.51c-0.35-0.68-0.73-1.38-1.12-2.08c3.14,3.1,6.15,5.99,9.01,8.63l60.5,55.65
										l29.85-4.73L1720.85,630"/>
									<polyline points="1802.07,623.61 1733.06,634.54 1746.45,660.46 1768.13,657.03 1820.46,758.33 1846.1,754.27 
										1793.77,652.97 1815.46,649.53 1802.07,623.61 									"/>
									<path d="M1746.45,660.46l-13.39-25.92l69.01-10.93l13.39,25.92l-21.69,3.44l52.33,101.3l-25.64,4.06l-52.33-101.3
										L1746.45,660.46 M1803.74,616.87l-78.56,12.44l19.58,37.9l21.69-3.44l52.34,101.31l35.19-5.57l-52.34-101.31l21.68-3.43
										L1803.74,616.87"/>
									<polyline points="1889.87,609.71 1815.95,621.41 1881.68,748.63 1955.6,736.92 1942.26,711.11 1895.07,718.58 
										1880.73,690.83 1918.88,684.78 1906.69,661.2 1868.54,667.24 1855.47,641.93 1902.66,634.46 1889.87,609.71 									"/>
									<path d="M1881.68,748.63l-65.73-127.22l73.92-11.71l12.79,24.75l-47.19,7.47l13.08,25.31l38.15-6.04l12.18,23.58
										l-38.15,6.04l14.34,27.76l47.19-7.47l13.34,25.81L1881.68,748.63 M1891.54,602.96l-83.45,13.22l71.92,139.22l83.45-13.22
										l-19.54-37.81l-47.19,7.47l-8.15-15.78l38.15-6.04l-18.37-35.56l-38.15,6.04l-6.89-13.33l47.19-7.47L1891.54,602.96"/>
									<polyline points="1969.35,670.17 1935.28,675.57 1948.02,700.23 1982.09,694.84 1969.35,670.17 									"/>
									<path d="M1948.02,700.23l-12.74-24.66l34.07-5.4l12.74,24.66L1948.02,700.23 M1971.02,663.43l-43.61,6.91l18.93,36.64
										l43.61-6.91L1971.02,663.43"/>
									<path d="M1525.4,985.09l-16.26-31.48l17.19-2.72c12.81-2.03,19.82,7.56,22.87,13.46c2.64,5.11,3.15,9.48,1.47,12.67
										c-1.56,2.93-4.64,4.8-9.15,5.52L1525.4,985.09 M1522.52,927.36l-52.24,8.27l65.73,127.24l27.33-4.33l-26.32-50.94
										l14.17-2.24l41.59,48.53l30.39-4.81l-47.65-53.64l1.4-1.55c4.78-5.29,6.94-10.81,6.42-16.43
										c-0.55-5.79-2.7-12.36-6.39-19.5c-5.66-10.96-13.09-19.04-22.69-24.72C1544.63,927.54,1533.94,925.55,1522.52,927.36"/>
									<path d="M1527.07,978.33l-10.06-19.46l12.41-1.96c8.81-1.4,12.64,3.64,15,8.21c1.65,3.18,1.95,5.55,0.95,7.42
										c-1.11,2.1-3.45,3.45-6.97,4L1527.07,978.33 M1526.32,950.89l-17.19,2.72l16.26,31.48l16.11-2.55
										c4.51-0.71,7.58-2.58,9.15-5.52c1.68-3.19,1.17-7.56-1.47-12.67C1546.14,958.45,1539.13,948.86,1526.32,950.89
										 M1536.02,1062.87l-65.73-127.24l52.24-8.27c11.42-1.81,22.1,0.18,31.73,5.87c9.61,5.68,17.04,13.77,22.69,24.72
										c3.69,7.14,5.84,13.71,6.39,19.5c0.52,5.62-1.64,11.14-6.42,16.43l-1.4,1.55l47.65,53.64l-30.39,4.81l-41.59-48.53
										l-14.17,2.24l26.32,50.94L1536.02,1062.87 M1519.43,921.37l-57.01,9.03l71.92,139.22l36.87-5.84l-26.32-50.95l6.08-0.96
										l41.6,48.52l40.8-6.46l-0.22,0.03l-0.1-0.39l-49.94-56.2c4.5-5.56,6.46-11.55,5.87-17.82c-0.63-6.71-3.08-14.23-7.28-22.36
										c-6.53-12.65-15.52-22.39-26.71-29.01C1543.98,921.67,1532.02,919.38,1519.43,921.37"/>
									<path d="M1642.47,992.63l-15.76-54.78l38.94,51.11L1642.47,992.63 M1632.03,910.02l-30.42,4.82l34.9,132.12l21.08-3.34
										l-7.29-27.26l31.58-5l19.49,25.33l27.72-4.39L1632.03,910.02"/>
									<path d="M1645.63,985.63l-7.25-25.18l17.91,23.49L1645.63,985.63 M1626.71,937.85l15.76,54.78l23.18-3.67L1626.71,937.85
										 M1636.51,1046.95l-34.9-132.12l30.42-4.82l97.06,122.27l-27.72,4.39l-19.49-25.33l-31.58,5l7.29,27.26L1636.51,1046.95
										 M1632.46,903.47l-37.48,5.94l38.08,144.17l0.1,0.39l0.22-0.03l30.85-4.89l-7.29-27.24l24.44-3.87l19.47,25.31l37.8-5.99
										L1632.46,903.47"/>
									<path d="M1714.39,894.75c-14.2,2.25-21.84,9.88-23.41,23.33c-1.58,13.45,2.89,30.47,13.26,50.54
										c10.44,20.2,22.9,35.55,37.03,45.57c14.05,9.98,28,13.96,41.44,11.83c11.16-1.77,18.52-7.45,21.9-16.84
										c3.14-8.73,1.89-20.34-3.72-34.58l-25.51,2.02c7.3,18.3,1.4,23.44-5.07,24.47c-5.59,0.89-11.6-1.51-17.84-7.12
										c-5.87-5.28-12.54-15.26-20.41-30.49c-14.35-27.77-15.71-42.78-4.06-44.62c4.34-0.69,9.35,1.07,14.9,5.23
										c4.84,3.61,9.4,9.33,13.89,17.38l24.13-5.67c-8.46-13.76-18.28-24.54-29.26-32.09
										C1740.03,895.69,1727.49,892.68,1714.39,894.75"/>
									<path d="M1782.71,1026.02c-13.44,2.13-27.38-1.85-41.44-11.83c-14.13-10.02-26.59-25.37-37.03-45.57
										c-10.37-20.08-14.85-37.1-13.26-50.54c1.57-13.44,9.22-21.08,23.41-23.33c13.09-2.07,25.64,0.94,37.27,8.95
										c10.97,7.54,20.8,18.33,29.26,32.09l-24.13,5.67c-4.48-8.05-9.05-13.77-13.89-17.38c-5.56-4.16-10.57-5.92-14.9-5.23
										c-11.65,1.84-10.29,16.85,4.06,44.62c7.87,15.24,14.54,25.21,20.41,30.49c6.24,5.61,12.25,8,17.84,7.12
										c6.47-1.02,12.37-6.16,5.07-24.47l25.51-2.02c5.61,14.23,6.85,25.85,3.72,34.58
										C1801.23,1018.57,1793.87,1024.25,1782.71,1026.02 M1711.3,888.76c-15.5,2.45-24.24,11.24-25.98,26.13
										c-1.72,14.65,3.04,32.99,14.14,54.49c11.24,21.75,24.83,38.38,40.4,49.44c15.64,11.11,31.1,15.55,45.94,13.2
										c12.32-1.95,20.5-8.27,24.27-18.77c3.78-10.54,1.97-24.66-5.4-41.92l-1.34-3.15l-35.51,2.78l1.31,2.95
										c7.75,17.51,2.63,20.49-1.9,21.2c-3.92,0.62-7.97-1.01-12.38-4.99c-4.79-4.3-10.85-13.52-18.02-27.39
										c-12.29-23.78-14.22-36.53-5.73-37.88c2.91-0.46,6.24,0.74,10.17,3.68c4.05,3.04,8.23,8.7,12.44,16.85l1.64,3.17
										l33.68-7.92l-1.77-3.03c-9.68-16.6-21.21-29.59-34.29-38.59C1739.77,889.92,1725.75,886.47,1711.3,888.76"/>
									<polyline points="1833.96,878.03 1764.95,888.96 1778.34,914.89 1800.03,911.45 1852.38,1012.76 1878.02,1008.7 
										1825.68,907.39 1847.35,903.96 1833.96,878.03 									"/>
									<path d="M1778.34,914.89l-13.39-25.92l69.01-10.93l13.39,25.92l-21.68,3.43l52.34,101.31l-25.64,4.06l-52.34-101.31
										L1778.34,914.89 M1835.65,871.29l-78.56,12.44l19.58,37.9l21.68-3.43l52.34,101.31l35.19-5.57l-52.34-101.31l21.69-3.44
										L1835.65,871.29"/>
									<polyline points="1875.19,871.5 1847.86,875.83 1913.59,1003.07 1940.92,998.74 1875.19,871.5 									"/>
									<path d="M1913.59,1003.07l-65.73-127.24l27.33-4.33l65.73,127.24L1913.59,1003.07 M1876.86,864.76l-36.87,5.84
										l71.92,139.22l36.87-5.84L1876.86,864.76"/>
									<path d="M1983.08,854.42l-21.36,3.38l27.16,97.01l-7.68-10.23c-2.95-3.95-6.13-8-9.43-12.05l-52.53-68.01l-28.76,4.56
										l98.14,122.1l29.21-4.63L1983.08,854.42"/>
									<path d="M1988.88,954.81l-27.16-97.01l21.36-3.38l34.74,132.14l-29.21,4.63l-98.14-122.1l28.76-4.56l52.53,68.01
										c3.3,4.05,6.48,8.1,9.43,12.05L1988.88,954.81 M1986.44,847.4l-31.42,4.98l22.48,80.24c-0.69-0.86-1.39-1.73-2.07-2.57
										l-55.68-72.08l-38.91,6.16l107.4,133.6l36.22-5.74L1986.44,847.4"/>
									<polyline points="2072.24,840.29 1998.33,852 2064.07,979.24 2137.97,967.53 2124.63,941.7 2077.43,949.17 2063.09,921.42 
										2101.24,915.37 2089.07,891.81 2050.92,897.85 2037.83,872.52 2085.03,865.05 2072.24,840.29 									"/>
									<path d="M2064.07,979.24L1998.33,852l73.91-11.71l12.79,24.75l-47.19,7.47l13.09,25.33l38.15-6.04l12.17,23.57l-38.15,6.04
										l14.34,27.76l47.19-7.47l13.35,25.83L2064.07,979.24 M2073.92,833.55l-83.47,13.22l71.92,139.22l83.47-13.22l-19.54-37.81
										l-47.21,7.48l-8.15-15.78l38.16-6.04l-18.37-35.56l-38.16,6.04l-6.89-13.33l47.21-7.48L2073.92,833.55"/>
								</g>
							</g>
						</g>
					</g>
				</g>
			</g>
		</g>
	</g>
</g>
<rect x="296.93" y="834.41" class="st5" width="26.56" height="0"/>
</svg>
